<mxfile modified="2022-10-30T18:26:04.647Z" host="app.diagrams.net" agent="5.0 (Windows)" etag="34U6VNjtm2x6d-PTVCy_" version="20.5.1" type="github">
  <diagram id="WI9T0HZ2pTsCkuznbFz-" name="Page-1">
    <mxGraphModel dx="813" dy="430" grid="1" gridSize="10" guides="1" tooltips="1" connect="1" arrows="1" fold="1" page="1" pageScale="1" pageWidth="1169" pageHeight="827" math="0" shadow="0">
      <root>
        <mxCell id="0" />
        <mxCell id="1" parent="0" />
        <mxCell id="AcxdMaKK0mU5kZiv2lnr-21" style="edgeStyle=orthogonalEdgeStyle;rounded=0;orthogonalLoop=1;jettySize=auto;html=1;strokeColor=#808080;startArrow=none;exitX=1.01;exitY=0.595;exitDx=0;exitDy=0;entryX=0;entryY=0.25;entryDx=0;entryDy=0;exitPerimeter=0;" parent="1" source="fkIsUnysvm8yx7V8iFc4-24" edge="1" target="fkIsUnysvm8yx7V8iFc4-21">
          <mxGeometry relative="1" as="geometry">
            <mxPoint x="610" y="236" as="targetPoint" />
            <Array as="points">
              <mxPoint x="579" y="208" />
            </Array>
          </mxGeometry>
        </mxCell>
        <mxCell id="AcxdMaKK0mU5kZiv2lnr-17" style="edgeStyle=elbowEdgeStyle;rounded=0;orthogonalLoop=1;jettySize=auto;html=1;entryX=-0.016;entryY=0.49;entryDx=0;entryDy=0;entryPerimeter=0;elbow=vertical;strokeColor=#808080;" parent="1" target="AcxdMaKK0mU5kZiv2lnr-6" edge="1">
          <mxGeometry relative="1" as="geometry">
            <mxPoint x="306" y="223" as="sourcePoint" />
          </mxGeometry>
        </mxCell>
        <mxCell id="AcxdMaKK0mU5kZiv2lnr-4" value="Microservices Architecture" style="rounded=0;whiteSpace=wrap;html=1;fillColor=#f5f5f5;strokeColor=none;fontColor=#333333;verticalAlign=top;" parent="1" vertex="1">
          <mxGeometry x="230" y="160" width="230" height="151" as="geometry" />
        </mxCell>
        <mxCell id="AcxdMaKK0mU5kZiv2lnr-6" value="sanctions-service" style="aspect=fixed;html=1;perimeter=none;align=center;shadow=0;dashed=0;image;fontSize=12;image=img/lib/mscae/WebApp_WebJobs.svg;labelBackgroundColor=none;" parent="1" vertex="1">
          <mxGeometry x="390" y="206" width="42" height="42" as="geometry" />
        </mxCell>
        <mxCell id="fkIsUnysvm8yx7V8iFc4-12" value="" style="edgeStyle=orthogonalEdgeStyle;rounded=0;orthogonalLoop=1;jettySize=auto;html=1;fontColor=#333333;entryX=-0.005;entryY=0.516;entryDx=0;entryDy=0;entryPerimeter=0;strokeColor=#808080;endArrow=classic;endFill=1;startArrow=classic;startFill=1;" edge="1" parent="1">
          <mxGeometry relative="1" as="geometry">
            <mxPoint x="335" y="225" as="sourcePoint" />
            <mxPoint x="372.67999999999995" y="225.02400000000006" as="targetPoint" />
          </mxGeometry>
        </mxCell>
        <mxCell id="fkIsUnysvm8yx7V8iFc4-8" value="&lt;span style=&quot;background-color: rgb(245, 245, 245);&quot;&gt;&lt;font color=&quot;#333333&quot;&gt;Other services&lt;/font&gt;&lt;/span&gt;" style="outlineConnect=0;dashed=0;verticalLabelPosition=bottom;verticalAlign=top;align=center;html=1;shape=mxgraph.aws3.table;fillColor=#448AB8;gradientColor=none;labelBackgroundColor=none;fontColor=#768037;" vertex="1" parent="1">
          <mxGeometry x="260" y="192" width="67.5" height="66" as="geometry" />
        </mxCell>
        <mxCell id="fkIsUnysvm8yx7V8iFc4-15" value="" style="edgeStyle=orthogonalEdgeStyle;rounded=0;orthogonalLoop=1;jettySize=auto;html=1;strokeColor=#808080;fontColor=#333333;startArrow=classic;startFill=1;endArrow=classic;endFill=1;exitX=0.01;exitY=0.39;exitDx=0;exitDy=0;exitPerimeter=0;" edge="1" parent="1" source="AcxdMaKK0mU5kZiv2lnr-5" target="AcxdMaKK0mU5kZiv2lnr-4">
          <mxGeometry relative="1" as="geometry">
            <mxPoint x="370" y="40" as="sourcePoint" />
          </mxGeometry>
        </mxCell>
        <mxCell id="AcxdMaKK0mU5kZiv2lnr-5" value="&lt;p style=&quot;line-height: 0.8;&quot;&gt;&lt;span style=&quot;background-color: rgb(255, 255, 255);&quot;&gt;Client View&lt;/span&gt;&lt;/p&gt;" style="aspect=fixed;html=1;perimeter=none;align=center;shadow=0;dashed=0;image;fontSize=12;image=img/lib/mscae/TaskVM.svg;" parent="1" vertex="1">
          <mxGeometry x="379.5" y="10" width="63" height="60" as="geometry" />
        </mxCell>
        <mxCell id="fkIsUnysvm8yx7V8iFc4-23" value="" style="group" vertex="1" connectable="0" parent="1">
          <mxGeometry x="610" y="179.75" width="110" height="111.5" as="geometry" />
        </mxCell>
        <mxCell id="fkIsUnysvm8yx7V8iFc4-21" value="Sanction Files" style="rounded=0;whiteSpace=wrap;html=1;fillColor=#f5f5f5;strokeColor=none;fontColor=#333333;verticalAlign=top;" vertex="1" parent="fkIsUnysvm8yx7V8iFc4-23">
          <mxGeometry width="110" height="111.5" as="geometry" />
        </mxCell>
        <mxCell id="fkIsUnysvm8yx7V8iFc4-17" value="" style="shape=image;verticalLabelPosition=bottom;labelBackgroundColor=#ffffff;verticalAlign=top;aspect=fixed;imageAspect=0;image=data:image/svg+xml,PHN2ZyB4bWxuczpjYz0iaHR0cDovL2NyZWF0aXZlY29tbW9ucy5vcmcvbnMjIiB4bWxuczpkYz0iaHR0cDovL3B1cmwub3JnL2RjL2VsZW1lbnRzLzEuMS8iIHhtbG5zOmlua3NjYXBlPSJodHRwOi8vd3d3Lmlua3NjYXBlLm9yZy9uYW1lc3BhY2VzL2lua3NjYXBlIiB4bWxuczpyZGY9Imh0dHA6Ly93d3cudzMub3JnLzE5OTkvMDIvMjItcmRmLXN5bnRheC1ucyMiIHhtbG5zOnNvZGlwb2RpPSJodHRwOi8vc29kaXBvZGkuc291cmNlZm9yZ2UubmV0L0RURC9zb2RpcG9kaS0wLmR0ZCIgeG1sbnM6c3ZnPSJodHRwOi8vd3d3LnczLm9yZy8yMDAwL3N2ZyIgeG1sbnM9Imh0dHA6Ly93d3cudzMub3JnLzIwMDAvc3ZnIiB4bWxuczp4bGluaz0iaHR0cDovL3d3dy53My5vcmcvMTk5OS94bGluayIgdmVyc2lvbj0iMS4xIiBpZD0ic3ZnMzg5ODYiIGlua3NjYXBlOnZlcnNpb249IjAuOTIuMyAoMjQwNTU0NiwgMjAxOC0wMy0xMSkiIHNvZGlwb2RpOmRvY25hbWU9ImNzdl8xLnN2ZyIgeD0iMHB4IiB5PSIwcHgiIHZpZXdCb3g9IjAgMCAzMS44OCAzNi40NCIgc3R5bGU9ImVuYWJsZS1iYWNrZ3JvdW5kOm5ldyAwIDAgMzEuODggMzYuNDQ7IiB4bWw6c3BhY2U9InByZXNlcnZlIj4mI3hhOzxzb2RpcG9kaTpuYW1lZHZpZXcgYm9yZGVyY29sb3I9IiM2NjY2NjYiIGJvcmRlcm9wYWNpdHk9IjEiIGZpdC1tYXJnaW4tYm90dG9tPSIwIiBmaXQtbWFyZ2luLWxlZnQ9IjAiIGZpdC1tYXJnaW4tcmlnaHQ9IjAiIGZpdC1tYXJnaW4tdG9wPSIwIiBncmlkdG9sZXJhbmNlPSIxMCIgZ3VpZGV0b2xlcmFuY2U9IjEwIiBpZD0ibmFtZWR2aWV3Mzg5ODgiIGlua3NjYXBlOmN1cnJlbnQtbGF5ZXI9InN2ZzM4OTg2IiBpbmtzY2FwZTpjeD0iMTguNjk5MDk5IiBpbmtzY2FwZTpjeT0iMjMuOTk3OTYxIiBpbmtzY2FwZTpwYWdlb3BhY2l0eT0iMCIgaW5rc2NhcGU6cGFnZXNoYWRvdz0iMiIgaW5rc2NhcGU6d2luZG93LWhlaWdodD0iMTAxNyIgaW5rc2NhcGU6d2luZG93LW1heGltaXplZD0iMSIgaW5rc2NhcGU6d2luZG93LXdpZHRoPSIxOTIwIiBpbmtzY2FwZTp3aW5kb3cteD0iLTgiIGlua3NjYXBlOndpbmRvdy15PSItOCIgaW5rc2NhcGU6em9vbT0iMTYuNTYxNzExIiBvYmplY3R0b2xlcmFuY2U9IjEwIiBwYWdlY29sb3I9IiNmZmZmZmYiIHNob3dncmlkPSJmYWxzZSI+JiN4YTsJPC9zb2RpcG9kaTpuYW1lZHZpZXc+JiN4YTs8ZyBpZD0iZzM4OTg0IiB0cmFuc2Zvcm09InRyYW5zbGF0ZSgtNS4wMjg1NywtMS4xOTIyMTMpIj4mI3hhOwk8dGl0bGUgaWQ9InRpdGxlMzg5MzMiPlBhZ2UtMTwvdGl0bGU+JiN4YTsJPGcgaWQ9Imdyb3VwNDAyNi0xIiB0cmFuc2Zvcm09InRyYW5zbGF0ZSg1LjAyODU3LC0xLjYzMDQyKSI+JiN4YTsJCTx0aXRsZSBpZD0idGl0bGUzODkzNSI+Q1NWICMxPC90aXRsZT4mI3hhOwkJPGcgaWQ9Imdyb3VwNDAyNy0yIj4mI3hhOwkJCTx0aXRsZSBpZD0idGl0bGUzODkzNyI+RE9DICMxLjM2NzU4PC90aXRsZT4mI3hhOwkJCTxnIGlkPSJzaGFwZTQwMjgtMyIgdHJhbnNmb3JtPSJ0cmFuc2xhdGUoNC41NTQ1NikiPiYjeGE7CQkJCTx0aXRsZSBpZD0idGl0bGUzODkzOSI+U2hlZXQuNDAyODwvdGl0bGU+JiN4YTsJCQkJPHBhdGggaWQ9InBhdGgzODk0MSIgaW5rc2NhcGU6Y29ubmVjdG9yLWN1cnZhdHVyZT0iMCIgc3R5bGU9ImZpbGw6I0UyRTVFNzsiIGQ9Ik0yLjI4LDIuODNDMS4wMiwyLjgzLDAsMy44NSwwLDUuMXYzMS44OCAgICAgIGMwLDEuMjYsMS4wMiwyLjI4LDIuMjgsMi4yOGgyMi43N2MxLjI1LDAsMi4yOC0xLjAyLDIuMjgtMi4yOFYxMS45M2wtOS4xMS05LjFIMi4yOHoiLz4mI3hhOwkJCTwvZz4mI3hhOwkJCTxnIGlkPSJzaGFwZTQwMjktNSIgdHJhbnNmb3JtPSJ0cmFuc2xhdGUoMjIuNzcyOCwtMjcuMzI3NCkiPiYjeGE7CQkJCTx0aXRsZSBpZD0idGl0bGUzODk0NCI+U2hlZXQuNDAyOTwvdGl0bGU+JiN4YTsJCQkJPHBhdGggaWQ9InBhdGgzODk0NiIgaW5rc2NhcGU6Y29ubmVjdG9yLWN1cnZhdHVyZT0iMCIgc3R5bGU9ImZpbGw6I0IwQjdCRDsiIGQ9Ik0yLjI4LDM5LjI2aDYuODNMMCwzMC4xNXY2LjgzICAgICAgQzAsMzguMjQsMS4wMiwzOS4yNiwyLjI4LDM5LjI2eiIvPiYjeGE7CQkJPC9nPiYjeGE7CQkJPGcgaWQ9InNoYXBlNDAzMC03IiB0cmFuc2Zvcm09InRyYW5zbGF0ZSgyNS4wNTAxLC0yMC40OTU1KSI+JiN4YTsJCQkJPHRpdGxlIGlkPSJ0aXRsZTM4OTQ5Ij5TaGVldC40MDMwPC90aXRsZT4mI3hhOwkJCQk8cGF0aCBpZD0icGF0aDM4OTUxIiBpbmtzY2FwZTpjb25uZWN0b3ItY3VydmF0dXJlPSIwIiBzdHlsZT0iZmlsbDojQ0FEMUQ4OyIgZD0iTTYuODMsMzkuMjZMMCwzMi40M2g2LjgzVjM5LjI2eiIvPiYjeGE7CQkJPC9nPiYjeGE7CQkJPGcgaWQ9InNoYXBlNDAzMS05IiB0cmFuc2Zvcm09InRyYW5zbGF0ZSgwLC01LjY5MzIpIj4mI3hhOwkJCQk8dGl0bGUgaWQ9InRpdGxlMzg5NTQiPlNoZWV0LjQwMzE8L3RpdGxlPiYjeGE7CQkJCTxwYXRoIGlkPSJwYXRoMzg5NTYiIGlua3NjYXBlOmNvbm5lY3Rvci1jdXJ2YXR1cmU9IjAiIHN0eWxlPSJmaWxsOiNGMzBCQTA7IiBkPSJNMjcuMzMsMzguMTJjMCwwLjYzLTAuNTIsMS4xNC0xLjE0LDEuMTRIMS4xNCAgICAgIEMwLjUxLDM5LjI2LDAsMzguNzUsMCwzOC4xMlYyNi43NGMwLTAuNjMsMC41MS0xLjE0LDEuMTQtMS4xNGgyNS4wNWMwLjYyLDAsMS4xNCwwLjUxLDEuMTQsMS4xNEwyNy4zMywzOC4xMnoiLz4mI3hhOwkJCTwvZz4mI3hhOwkJCTxnIGlkPSJzaGFwZTQwMzItMTEiIHRyYW5zZm9ybT0idHJhbnNsYXRlKDQuNTU0NTYsLTQuNTU0NTYpIj4mI3hhOwkJCQk8dGl0bGUgaWQ9InRpdGxlMzg5NTkiPlNoZWV0LjQwMzI8L3RpdGxlPiYjeGE7CQkJCTxwYXRoIGlkPSJwYXRoMzg5NjEiIGlua3NjYXBlOmNvbm5lY3Rvci1jdXJ2YXR1cmU9IjAiIHN0eWxlPSJmaWxsOiNDQUQxRDg7IiBkPSJNMjEuNjMsMzguMTJIMHYxLjE0aDIxLjYzICAgICAgYzAuNjMsMCwxLjE0LTAuNTEsMS4xNC0xLjE0di0xLjE0QzIyLjc3LDM3LjYxLDIyLjI2LDM4LjEyLDIxLjYzLDM4LjEyeiIvPiYjeGE7CQkJPC9nPiYjeGE7CQk8L2c+JiN4YTsJCTxnIGlkPSJncm91cDQwMzMtMTMiIHRyYW5zZm9ybT0idHJhbnNsYXRlKDUuOSwtOS4yOTgxNikiPiYjeGE7CQkJPHRpdGxlIGlkPSJ0aXRsZTM4OTY1Ij5DU1YuMzY3NzA8L3RpdGxlPiYjeGE7CQkJPGcgaWQ9InNoYXBlNDAzNC0xNCI+JiN4YTsJCQkJPHRpdGxlIGlkPSJ0aXRsZTM4OTY3Ij5TaGVldC40MDM0PC90aXRsZT4mI3hhOwkJCQk8cGF0aCBpZD0icGF0aDM4OTY5IiBpbmtzY2FwZTpjb25uZWN0b3ItY3VydmF0dXJlPSIwIiBzdHlsZT0iZmlsbDojRkZGRkZGOyIgZD0iTTQuMzcsMzguNTdjLTAuMjMsMC4yMy0wLjUsMC40MS0wLjc5LDAuNTIgICAgICBjLTAuMywwLjEyLTAuNjIsMC4xNy0wLjk2LDAuMTdjLTAuMzgsMC0wLjcyLTAuMDctMS4wNC0wLjJjLTAuMzEtMC4xNC0wLjU5LTAuMzUtMC44Mi0wLjYyYy0wLjI0LTAuMjctMC40My0wLjYxLTAuNTYtMS4wMSAgICAgIEMwLjA3LDM3LjAyLDAsMzYuNTUsMCwzNi4wMWMwLTAuNTMsMC4wNy0xLDAuMi0xLjQxYzAuMTMtMC40LDAuMzItMC43NCwwLjU2LTEuMDFjMC4yMy0wLjI3LDAuNTEtMC40OCwwLjgzLTAuNjIgICAgICBzMC42Ni0wLjIxLDEuMDMtMC4yMWMwLjM0LDAsMC42NiwwLjA2LDAuOTYsMC4xN2MwLjI5LDAuMTIsMC41NiwwLjI5LDAuNzksMC41MmwtMC43MSwwLjY0Yy0wLjE0LTAuMTctMC4zLTAuMjktMC40Ny0wLjM2ICAgICAgYy0wLjE4LTAuMDgtMC4zNi0wLjEyLTAuNTQtMC4xMmMtMC4yMiwwLTAuNDIsMC4wNC0wLjYxLDAuMTJjLTAuMTksMC4wOS0wLjM2LDAuMjItMC41MSwwLjQxYy0wLjE1LDAuMi0wLjI3LDAuNDQtMC4zNSwwLjc1ICAgICAgYy0wLjA5LDAuMzEtMC4xMywwLjY4LTAuMTQsMS4xMmMwLjAxLDAuNDMsMC4wNSwwLjgsMC4xMywxLjFjMC4wOSwwLjMxLDAuMiwwLjU2LDAuMzQsMC43NWMwLjE1LDAuMTksMC4zMSwwLjMzLDAuNSwwLjQyICAgICAgYzAuMTgsMC4wOSwwLjM4LDAuMTQsMC41OCwwLjE0YzAuMjEsMCwwLjQtMC4wNCwwLjU4LTAuMTJjMC4xOC0wLjA3LDAuMzQtMC4xOSwwLjQ5LTAuMzZMNC4zNywzOC41N3oiLz4mI3hhOwkJCTwvZz4mI3hhOwkJCTxnIGlkPSJzaGFwZTQwMzUtMTYiIHRyYW5zZm9ybT0idHJhbnNsYXRlKDUuNzQzMzYsLTAuMDA4ODMwMjcpIj4mI3hhOwkJCQk8dGl0bGUgaWQ9InRpdGxlMzg5NzIiPlNoZWV0LjQwMzU8L3RpdGxlPiYjeGE7CQkJCTxwYXRoIGlkPSJwYXRoMzg5NzQiIGlua3NjYXBlOmNvbm5lY3Rvci1jdXJ2YXR1cmU9IjAiIHN0eWxlPSJmaWxsOiNGRkZGRkY7IiBkPSJNMy42NSwzNy40OWMwLDAuMjMtMC4wNCwwLjQ1LTAuMTQsMC42NiAgICAgIGMtMC4wOSwwLjIyLTAuMjIsMC40MS0wLjM5LDAuNTdjLTAuMTcsMC4xNy0wLjM5LDAuMy0wLjY0LDAuNGMtMC4yNSwwLjA5LTAuNTMsMC4xNC0wLjg1LDAuMTRjLTAuMTQsMC0wLjI4LTAuMDEtMC40Mi0wLjAyICAgICAgYy0wLjE1LTAuMDEtMC4yOS0wLjA0LTAuNDQtMC4wN2MtMC4xNS0wLjA0LTAuMjktMC4wOC0wLjQyLTAuMTRDMC4yMSwzOC45NiwwLjEsMzguODksMCwzOC44bDAuMTgtMC43NCAgICAgIGMwLjA4LDAuMDUsMC4xOCwwLjA5LDAuMywwLjE0YzAuMTIsMC4wNCwwLjI1LDAuMDgsMC4zOCwwLjEyYzAuMTMsMC4wNCwwLjI2LDAuMDYsMC4zOSwwLjA5YzAuMTMsMC4wMiwwLjI2LDAuMDMsMC4zNywwLjAzICAgICAgYzAuMzUsMCwwLjYxLTAuMDgsMC44LTAuMjRjMC4xOC0wLjE3LDAuMjgtMC40MSwwLjI4LTAuNzNjMC0wLjItMC4wNy0wLjM2LTAuMi0wLjVzLTAuMjktMC4yNi0wLjQ5LTAuMzggICAgICBjLTAuMi0wLjExLTAuNDEtMC4yMi0wLjY0LTAuMzNjLTAuMjItMC4xMi0wLjQ0LTAuMjUtMC42NC0wLjRjLTAuMi0wLjE1LTAuMzYtMC4zMy0wLjQ5LTAuNTRzLTAuMi0wLjQ2LTAuMi0wLjc3ICAgICAgYzAtMC4yOSwwLjA1LTAuNTQsMC4xNi0wLjc1YzAuMS0wLjIyLDAuMjQtMC40MSwwLjQxLTAuNTZzMC4zOC0wLjI3LDAuNjEtMC4zNWMwLjIzLTAuMDgsMC40Ny0wLjEyLDAuNzMtMC4xMiAgICAgIHMwLjUyLDAuMDIsMC43OSwwLjA3czAuNDgsMC4xMywwLjY1LDAuMjRjLTAuMDQsMC4wNy0wLjA4LDAuMTYtMC4xMiwwLjI1Yy0wLjA1LDAuMDktMC4wOSwwLjE3LTAuMTMsMC4yNSAgICAgIGMtMC4wNCwwLjA3LTAuMDcsMC4xNC0wLjEsMC4xOXMtMC4wNSwwLjA4LTAuMDUsMC4wOWMtMC4wNC0wLjAyLTAuMDctMC4wNC0wLjEyLTAuMDdjLTAuMDQtMC4wMy0wLjEtMC4wNi0wLjE4LTAuMDkgICAgICBjLTAuMDgtMC4wMy0wLjE5LTAuMDUtMC4zMi0wLjA2Yy0wLjEzLTAuMDEtMC4zLTAuMDEtMC41LDAuMDFjLTAuMTIsMC4wMS0wLjIyLDAuMDQtMC4zMywwLjFjLTAuMSwwLjA1LTAuMTksMC4xMi0wLjI3LDAuMiAgICAgIHMtMC4xNCwwLjE3LTAuMTksMC4yN2MtMC4wNCwwLjEtMC4wNywwLjItMC4wNywwLjI5YzAsMC4yMywwLjA3LDAuNDIsMC4yLDAuNTZjMC4xMywwLjE0LDAuMjksMC4yNiwwLjQ5LDAuMzcgICAgICBjMC4xOSwwLjExLDAuNCwwLjIxLDAuNjMsMC4zMWMwLjIzLDAuMSwwLjQ0LDAuMjIsMC42NCwwLjM3YzAuMTksMC4xNCwwLjM1LDAuMzIsMC40OSwwLjUzQzMuNTksMzYuODcsMy42NSwzNy4xNSwzLjY1LDM3LjQ5eiIvPiYjeGE7CQkJPC9nPiYjeGE7CQkJPGcgaWQ9InNoYXBlNDAzNi0xOCIgdHJhbnNmb3JtPSJ0cmFuc2xhdGUoMTAuMTkxMiwtMC4wMDgxOTk1MykiPiYjeGE7CQkJCTx0aXRsZSBpZD0idGl0bGUzODk3NyI+U2hlZXQuNDAzNjwvdGl0bGU+JiN4YTsJCQkJPHBhdGggaWQ9InBhdGgzODk3OSIgaW5rc2NhcGU6Y29ubmVjdG9yLWN1cnZhdHVyZT0iMCIgc3R5bGU9ImZpbGw6I0ZGRkZGRjsiIGQ9Ik0xLjk1LDM5LjI2TDAsMzIuODdoMS4xN2wxLjQ2LDUuNDlsMS41NC01LjQ5ICAgICAgaDEuMTdsLTIuMDUsNi4zOUwxLjk1LDM5LjI2eiIvPiYjeGE7CQkJPC9nPiYjeGE7CQk8L2c+JiN4YTsJPC9nPiYjeGE7PC9nPiYjeGE7PC9zdmc+;fontColor=#333333;fillColor=#448AB8;" vertex="1" parent="fkIsUnysvm8yx7V8iFc4-23">
          <mxGeometry x="57" y="65" width="32" height="36" as="geometry" />
        </mxCell>
        <mxCell id="fkIsUnysvm8yx7V8iFc4-18" value="" style="shape=image;verticalLabelPosition=bottom;labelBackgroundColor=#ffffff;verticalAlign=top;aspect=fixed;imageAspect=0;image=data:image/svg+xml,PHN2ZyB4bWxuczpjYz0iaHR0cDovL2NyZWF0aXZlY29tbW9ucy5vcmcvbnMjIiB4bWxuczpkYz0iaHR0cDovL3B1cmwub3JnL2RjL2VsZW1lbnRzLzEuMS8iIHhtbG5zOmlua3NjYXBlPSJodHRwOi8vd3d3Lmlua3NjYXBlLm9yZy9uYW1lc3BhY2VzL2lua3NjYXBlIiB4bWxuczpyZGY9Imh0dHA6Ly93d3cudzMub3JnLzE5OTkvMDIvMjItcmRmLXN5bnRheC1ucyMiIHhtbG5zOnNvZGlwb2RpPSJodHRwOi8vc29kaXBvZGkuc291cmNlZm9yZ2UubmV0L0RURC9zb2RpcG9kaS0wLmR0ZCIgeG1sbnM6c3ZnPSJodHRwOi8vd3d3LnczLm9yZy8yMDAwL3N2ZyIgeG1sbnM9Imh0dHA6Ly93d3cudzMub3JnLzIwMDAvc3ZnIiB4bWxuczp4bGluaz0iaHR0cDovL3d3dy53My5vcmcvMTk5OS94bGluayIgdmVyc2lvbj0iMS4xIiBpZD0ic3ZnNDI5MjIiIGlua3NjYXBlOnZlcnNpb249IjAuOTIuMyAoMjQwNTU0NiwgMjAxOC0wMy0xMSkiIHNvZGlwb2RpOmRvY25hbWU9ImV4Y2VsXzEuc3ZnIiB4PSIwcHgiIHk9IjBweCIgdmlld0JveD0iMCAwIDMxLjg4IDM2LjQ0IiBzdHlsZT0iZW5hYmxlLWJhY2tncm91bmQ6bmV3IDAgMCAzMS44OCAzNi40NDsiIHhtbDpzcGFjZT0icHJlc2VydmUiPiYjeGE7PHNvZGlwb2RpOm5hbWVkdmlldyBib3JkZXJjb2xvcj0iIzY2NjY2NiIgYm9yZGVyb3BhY2l0eT0iMSIgZml0LW1hcmdpbi1ib3R0b209IjAiIGZpdC1tYXJnaW4tbGVmdD0iMCIgZml0LW1hcmdpbi1yaWdodD0iMCIgZml0LW1hcmdpbi10b3A9IjAiIGdyaWR0b2xlcmFuY2U9IjEwIiBndWlkZXRvbGVyYW5jZT0iMTAiIGlkPSJuYW1lZHZpZXc0MjkyNCIgaW5rc2NhcGU6Y3VycmVudC1sYXllcj0ic3ZnNDI5MjIiIGlua3NjYXBlOmN4PSIyMS4yNTQ2MzgiIGlua3NjYXBlOmN5PSIyNC4yOTQ4MzciIGlua3NjYXBlOnBhZ2VvcGFjaXR5PSIwIiBpbmtzY2FwZTpwYWdlc2hhZG93PSIyIiBpbmtzY2FwZTp3aW5kb3ctaGVpZ2h0PSIxMDE3IiBpbmtzY2FwZTp3aW5kb3ctbWF4aW1pemVkPSIxIiBpbmtzY2FwZTp3aW5kb3ctd2lkdGg9IjE5MjAiIGlua3NjYXBlOndpbmRvdy14PSItOCIgaW5rc2NhcGU6d2luZG93LXk9Ii04IiBpbmtzY2FwZTp6b29tPSIxNi43NDczMDEiIG9iamVjdHRvbGVyYW5jZT0iMTAiIHBhZ2Vjb2xvcj0iI2ZmZmZmZiIgc2hvd2dyaWQ9ImZhbHNlIj4mI3hhOwk8L3NvZGlwb2RpOm5hbWVkdmlldz4mI3hhOzxnIGlkPSJnNDI5MjAiIHRyYW5zZm9ybT0idHJhbnNsYXRlKC0xLjE5NTMxLC0xLjE5NDcyODUpIj4mI3hhOwk8dGl0bGUgaWQ9InRpdGxlNDI4NzIiPlBhZ2UtMTwvdGl0bGU+JiN4YTsJPGcgaWQ9Imdyb3VwNDA0Ny0xIiB0cmFuc2Zvcm09InRyYW5zbGF0ZSgxLjE5NTMxLC0xLjE5NTMxKSI+JiN4YTsJCTx0aXRsZSBpZD0idGl0bGU0Mjg3NCI+RXhjZWwgIzE8L3RpdGxlPiYjeGE7CQk8ZyBpZD0ic2hhcGU0MDQ4LTIiIHRyYW5zZm9ybT0idHJhbnNsYXRlKDQuNTU0NTYpIj4mI3hhOwkJCTx0aXRsZSBpZD0idGl0bGU0Mjg3NiI+U2hlZXQuNDA0ODwvdGl0bGU+JiN4YTsJCQk8cGF0aCBpZD0icGF0aDQyODc4IiBpbmtzY2FwZTpjb25uZWN0b3ItY3VydmF0dXJlPSIwIiBzdHlsZT0iZmlsbDojRTJFNUU3OyIgZD0iTTIuMjgsMi4zOUMxLjAyLDIuMzksMCwzLjQyLDAsNC42N3YzMS44OCAgICAgYzAsMS4yNSwxLjAyLDIuMjgsMi4yOCwyLjI4aDIyLjc3YzEuMjUsMCwyLjI4LTEuMDMsMi4yOC0yLjI4VjExLjVsLTkuMTEtOS4xMUgyLjI4eiIvPiYjeGE7CQk8L2c+JiN4YTsJCTxnIGlkPSJzaGFwZTQwNDktNCIgdHJhbnNmb3JtPSJ0cmFuc2xhdGUoMjIuNzcyOCwtMjcuMzI3NCkiPiYjeGE7CQkJPHRpdGxlIGlkPSJ0aXRsZTQyODgxIj5TaGVldC40MDQ5PC90aXRsZT4mI3hhOwkJCTxwYXRoIGlkPSJwYXRoNDI4ODMiIGlua3NjYXBlOmNvbm5lY3Rvci1jdXJ2YXR1cmU9IjAiIHN0eWxlPSJmaWxsOiNCMEI3QkQ7IiBkPSJNMi4yOCwzOC44M2g2LjgzTDAsMjkuNzJ2Ni44MyAgICAgQzAsMzcuOCwxLjAyLDM4LjgzLDIuMjgsMzguODN6Ii8+JiN4YTsJCTwvZz4mI3hhOwkJPGcgaWQ9InNoYXBlNDA1MC02IiB0cmFuc2Zvcm09InRyYW5zbGF0ZSgyNS4wNTAxLC0yMC40OTU1KSI+JiN4YTsJCQk8dGl0bGUgaWQ9InRpdGxlNDI4ODYiPlNoZWV0LjQwNTA8L3RpdGxlPiYjeGE7CQkJPHBhdGggaWQ9InBhdGg0Mjg4OCIgaW5rc2NhcGU6Y29ubmVjdG9yLWN1cnZhdHVyZT0iMCIgc3R5bGU9ImZpbGw6I0NBRDFEODsiIGQ9Ik02LjgzLDM4LjgzTDAsMzJoNi44M1YzOC44M3oiLz4mI3hhOwkJPC9nPiYjeGE7CQk8ZyBpZD0ic2hhcGU0MDUxLTgiIHRyYW5zZm9ybT0idHJhbnNsYXRlKDAsLTUuNjkzMikiPiYjeGE7CQkJPHRpdGxlIGlkPSJ0aXRsZTQyODkxIj5TaGVldC40MDUxPC90aXRsZT4mI3hhOwkJCTxwYXRoIGlkPSJwYXRoNDI4OTMiIGlua3NjYXBlOmNvbm5lY3Rvci1jdXJ2YXR1cmU9IjAiIHN0eWxlPSJmaWxsOiM5REJCNjE7IiBkPSJNMjcuMzMsMzcuNjljMCwwLjYyLTAuNTIsMS4xNC0xLjE0LDEuMTRIMS4xNCAgICAgQzAuNTEsMzguODMsMCwzOC4zMSwwLDM3LjY5VjI2LjNjMC0wLjYyLDAuNTEtMS4xNCwxLjE0LTEuMTRoMjUuMDVjMC42MiwwLDEuMTQsMC41MiwxLjE0LDEuMTRMMjcuMzMsMzcuNjl6Ii8+JiN4YTsJCTwvZz4mI3hhOwkJPGcgaWQ9Imdyb3VwNDA1Mi0xMCIgdHJhbnNmb3JtPSJ0cmFuc2xhdGUoNC44MzQ2NywtOC41MjYxNCkiPiYjeGE7CQkJPHRpdGxlIGlkPSJ0aXRsZTQyODk2Ij5TaGVldC40MDUyPC90aXRsZT4mI3hhOwkJCTxnIGlkPSJzaGFwZTQwNTMtMTEiIHRyYW5zZm9ybT0idHJhbnNsYXRlKDAsLTAuMTYzOTY0KSI+JiN4YTsJCQkJPHRpdGxlIGlkPSJ0aXRsZTQyODk4Ij5TaGVldC40MDUzPC90aXRsZT4mI3hhOwkJCQk8cGF0aCBpZD0icGF0aDQyOTAwIiBpbmtzY2FwZTpjb25uZWN0b3ItY3VydmF0dXJlPSIwIiBzdHlsZT0iZmlsbDojRkZGRkZGOyIgZD0iTTMuMTYsMzQuMjlsMS41OC0xLjk4ICAgICAgYzAuNDgtMC42MiwxLjQsMC4xNywwLjg4LDAuNzZjLTAuNTUsMC42NS0xLjEyLDEuMzUtMS42NywyLjA3bDEuODYsMi4zMWMwLjUsMC42OS0wLjUsMS4zNC0wLjk5LDAuNjdsLTEuNjgtMi4xNWwtMS42NSwyLjE5ICAgICAgYy0wLjQ2LDAuNjctMS40OS0wLjA4LTAuOTctMC43bDEuODMtMi4zMmMtMC41Ny0wLjcyLTEuMTMtMS40Mi0xLjY5LTIuMDdjLTAuNTctMC42OCwwLjUtMS4zOCwwLjkyLTAuNzRMMy4xNiwzNC4yOXoiLz4mI3hhOwkJCTwvZz4mI3hhOwkJCTxnIGlkPSJzaGFwZTQwNTQtMTMiIHRyYW5zZm9ybT0idHJhbnNsYXRlKDYuOTMzMTgsLTAuNTgyOTg0KSI+JiN4YTsJCQkJPHRpdGxlIGlkPSJ0aXRsZTQyOTAzIj5TaGVldC40MDU0PC90aXRsZT4mI3hhOwkJCQk8cGF0aCBpZD0icGF0aDQyOTA1IiBpbmtzY2FwZTpjb25uZWN0b3ItY3VydmF0dXJlPSIwIiBzdHlsZT0iZmlsbDojRkZGRkZGOyIgZD0iTTAsMzMuMDdjMC0wLjMsMC4yNi0wLjU1LDAuNTctMC41NSAgICAgIGMwLjMsMCwwLjU0LDAuMjUsMC41NCwwLjU1djQuNTZoMi40OGMwLjg5LDAsMC45MSwxLjIsMCwxLjJIMC41OEMwLjI2LDM4LjgzLDAsMzguNiwwLDM4LjI3VjMzLjA3eiIvPiYjeGE7CQkJPC9nPiYjeGE7CQkJPGcgaWQ9InNoYXBlNDA1NS0xNSIgdHJhbnNmb3JtPSJ0cmFuc2xhdGUoMTEuOTY0OCkiPiYjeGE7CQkJCTx0aXRsZSBpZD0idGl0bGU0MjkwOCI+U2hlZXQuNDA1NTwvdGl0bGU+JiN4YTsJCQkJPHBhdGggaWQ9InBhdGg0MjkxMCIgaW5rc2NhcGU6Y29ubmVjdG9yLWN1cnZhdHVyZT0iMCIgc3R5bGU9ImZpbGw6I0ZGRkZGRjsiIGQ9Ik0wLjI4LDMzLjMxYzAuMjEtMS43NywyLjg4LTIuMDgsNC4xNC0xLjEyICAgICAgYzAuNjIsMC41LTAuMDQsMS4yOS0wLjU5LDAuODljLTAuNjctMC40Mi0yLjItMC42Mi0yLjM5LDAuMzJjLTAuMjUsMS40OSwzLjcxLDAuNjQsMy42NSwzLjA2Yy0wLjA3LDIuMzEtMy40MiwyLjM3LTQuNjcsMS4zMyAgICAgIGMtMC4zLTAuMjUtMC4yOS0wLjY1LTAuMTMtMC44OWMwLjI0LTAuMjQsMC41LTAuMzIsMC44MS0wLjA3YzAuNzUsMC41MSwyLjY3LDAuOSwyLjgtMC40QzMuNzksMzUuMDksMCwzNS45LDAuMjgsMzMuMzF6Ii8+JiN4YTsJCQk8L2c+JiN4YTsJCTwvZz4mI3hhOwkJPGcgaWQ9InNoYXBlNDA1Ni0xNyIgdHJhbnNmb3JtPSJ0cmFuc2xhdGUoNC41NTQ1NiwtNC41NTQ1NikiPiYjeGE7CQkJPHRpdGxlIGlkPSJ0aXRsZTQyOTE0Ij5TaGVldC40MDU2PC90aXRsZT4mI3hhOwkJCTxwYXRoIGlkPSJwYXRoNDI5MTYiIGlua3NjYXBlOmNvbm5lY3Rvci1jdXJ2YXR1cmU9IjAiIHN0eWxlPSJmaWxsOiNDQUQxRDg7IiBkPSJNMjEuNjMsMzcuNjlIMHYxLjE0aDIxLjYzICAgICBjMC42MywwLDEuMTQtMC41MiwxLjE0LTEuMTR2LTEuMTRDMjIuNzcsMzcuMTgsMjIuMjYsMzcuNjksMjEuNjMsMzcuNjl6Ii8+JiN4YTsJCTwvZz4mI3hhOwk8L2c+JiN4YTs8L2c+JiN4YTs8L3N2Zz4=;fontColor=#333333;fillColor=#448AB8;" vertex="1" parent="fkIsUnysvm8yx7V8iFc4-23">
          <mxGeometry x="17" y="65" width="32" height="36" as="geometry" />
        </mxCell>
        <mxCell id="fkIsUnysvm8yx7V8iFc4-19" value="" style="shape=image;verticalLabelPosition=bottom;labelBackgroundColor=#ffffff;verticalAlign=top;aspect=fixed;imageAspect=0;image=data:image/svg+xml,PHN2ZyB4bWxuczpjYz0iaHR0cDovL2NyZWF0aXZlY29tbW9ucy5vcmcvbnMjIiB4bWxuczpkYz0iaHR0cDovL3B1cmwub3JnL2RjL2VsZW1lbnRzLzEuMS8iIHhtbG5zOmlua3NjYXBlPSJodHRwOi8vd3d3Lmlua3NjYXBlLm9yZy9uYW1lc3BhY2VzL2lua3NjYXBlIiB4bWxuczpyZGY9Imh0dHA6Ly93d3cudzMub3JnLzE5OTkvMDIvMjItcmRmLXN5bnRheC1ucyMiIHhtbG5zOnNvZGlwb2RpPSJodHRwOi8vc29kaXBvZGkuc291cmNlZm9yZ2UubmV0L0RURC9zb2RpcG9kaS0wLmR0ZCIgeG1sbnM6c3ZnPSJodHRwOi8vd3d3LnczLm9yZy8yMDAwL3N2ZyIgeG1sbnM9Imh0dHA6Ly93d3cudzMub3JnLzIwMDAvc3ZnIiB4bWxuczp4bGluaz0iaHR0cDovL3d3dy53My5vcmcvMTk5OS94bGluayIgdmVyc2lvbj0iMS4xIiBpZD0ic3ZnNTUyODAiIGlua3NjYXBlOnZlcnNpb249IjAuOTIuMyAoMjQwNTU0NiwgMjAxOC0wMy0xMSkiIHNvZGlwb2RpOmRvY25hbWU9InhtbF8xLnN2ZyIgeD0iMHB4IiB5PSIwcHgiIHZpZXdCb3g9IjAgMCAzMS44OCAzNi40NCIgc3R5bGU9ImVuYWJsZS1iYWNrZ3JvdW5kOm5ldyAwIDAgMzEuODggMzYuNDQ7IiB4bWw6c3BhY2U9InByZXNlcnZlIj4mI3hhOzxzb2RpcG9kaTpuYW1lZHZpZXcgYm9yZGVyY29sb3I9IiM2NjY2NjYiIGJvcmRlcm9wYWNpdHk9IjEiIGZpdC1tYXJnaW4tYm90dG9tPSIwIiBmaXQtbWFyZ2luLWxlZnQ9IjAiIGZpdC1tYXJnaW4tcmlnaHQ9IjAiIGZpdC1tYXJnaW4tdG9wPSIwIiBncmlkdG9sZXJhbmNlPSIxMCIgZ3VpZGV0b2xlcmFuY2U9IjEwIiBpZD0ibmFtZWR2aWV3NTUyODIiIGlua3NjYXBlOmN1cnJlbnQtbGF5ZXI9InN2ZzU1MjgwIiBpbmtzY2FwZTpjeD0iMTguMzIwMjU0IiBpbmtzY2FwZTpjeT0iMjMuODk2MzY5IiBpbmtzY2FwZTpwYWdlb3BhY2l0eT0iMCIgaW5rc2NhcGU6cGFnZXNoYWRvdz0iMiIgaW5rc2NhcGU6d2luZG93LWhlaWdodD0iMTAxNyIgaW5rc2NhcGU6d2luZG93LW1heGltaXplZD0iMSIgaW5rc2NhcGU6d2luZG93LXdpZHRoPSIxOTIwIiBpbmtzY2FwZTp3aW5kb3cteD0iLTgiIGlua3NjYXBlOndpbmRvdy15PSItOCIgaW5rc2NhcGU6em9vbT0iMTYuNDk4MzU3IiBvYmplY3R0b2xlcmFuY2U9IjEwIiBwYWdlY29sb3I9IiNmZmZmZmYiIHNob3dncmlkPSJmYWxzZSI+JiN4YTsJPC9zb2RpcG9kaTpuYW1lZHZpZXc+JiN4YTs8ZyBpZD0iZzU1Mjc4IiB0cmFuc2Zvcm09InRyYW5zbGF0ZSgtNS45MjQ4NSwtMS4xOTE0MTIpIj4mI3hhOwk8dGl0bGUgaWQ9InRpdGxlNTUyMjQiPlBhZ2UtMTwvdGl0bGU+JiN4YTsJPGcgaWQ9Imdyb3VwMzk3Ni0xIiB0cmFuc2Zvcm09InRyYW5zbGF0ZSg1LjkyNDg1LC0xLjc4MTIxKSI+JiN4YTsJCTx0aXRsZSBpZD0idGl0bGU1NTIyNiI+WE1MICMxPC90aXRsZT4mI3hhOwkJPGcgaWQ9Imdyb3VwMzk3Ny0yIj4mI3hhOwkJCTx0aXRsZSBpZD0idGl0bGU1NTIyOCI+SlNPTiAjMS4zNzM8L3RpdGxlPiYjeGE7CQkJPGcgaWQ9Imdyb3VwMzk3OC0zIj4mI3hhOwkJCQk8dGl0bGUgaWQ9InRpdGxlNTUyMzAiPkRPQyAjMTwvdGl0bGU+JiN4YTsJCQkJPGcgaWQ9InNoYXBlMzk3OS00IiB0cmFuc2Zvcm09InRyYW5zbGF0ZSg0LjU1NDU2KSI+JiN4YTsJCQkJCTx0aXRsZSBpZD0idGl0bGU1NTIzMiI+U2hlZXQuMzk3OTwvdGl0bGU+JiN4YTsJCQkJCTxwYXRoIGlkPSJwYXRoNTUyMzQiIGlua3NjYXBlOmNvbm5lY3Rvci1jdXJ2YXR1cmU9IjAiIHN0eWxlPSJmaWxsOiNFMkU1RTc7IiBkPSJNMi4yOCwyLjk4QzEuMDIsMi45OCwwLDQsMCw1LjI1djMxLjg5ICAgICAgIGMwLDEuMjUsMS4wMiwyLjI3LDIuMjgsMi4yN2gyMi43N2MxLjI1LDAsMi4yOC0xLjAyLDIuMjgtMi4yN1YxMi4wOWwtOS4xMS05LjExSDIuMjh6Ii8+JiN4YTsJCQkJPC9nPiYjeGE7CQkJCTxnIGlkPSJzaGFwZTM5ODAtNiIgdHJhbnNmb3JtPSJ0cmFuc2xhdGUoMjIuNzcyOCwtMjcuMzI3NCkiPiYjeGE7CQkJCQk8dGl0bGUgaWQ9InRpdGxlNTUyMzciPlNoZWV0LjM5ODA8L3RpdGxlPiYjeGE7CQkJCQk8cGF0aCBpZD0icGF0aDU1MjM5IiBpbmtzY2FwZTpjb25uZWN0b3ItY3VydmF0dXJlPSIwIiBzdHlsZT0iZmlsbDojQjBCN0JEOyIgZD0iTTIuMjgsMzkuNDFoNi44M0wwLDMwLjN2Ni44NCAgICAgICBDMCwzOC4zOSwxLjAyLDM5LjQxLDIuMjgsMzkuNDF6Ii8+JiN4YTsJCQkJPC9nPiYjeGE7CQkJCTxnIGlkPSJzaGFwZTM5ODEtOCIgdHJhbnNmb3JtPSJ0cmFuc2xhdGUoMjUuMDUwMSwtMjAuNDk1NSkiPiYjeGE7CQkJCQk8dGl0bGUgaWQ9InRpdGxlNTUyNDIiPlNoZWV0LjM5ODE8L3RpdGxlPiYjeGE7CQkJCQk8cGF0aCBpZD0icGF0aDU1MjQ0IiBpbmtzY2FwZTpjb25uZWN0b3ItY3VydmF0dXJlPSIwIiBzdHlsZT0iZmlsbDojQ0FEMUQ4OyIgZD0iTTYuODMsMzkuNDFMMCwzMi41OGg2LjgzVjM5LjQxeiIvPiYjeGE7CQkJCTwvZz4mI3hhOwkJCQk8ZyBpZD0ic2hhcGUzOTgyLTEwIiB0cmFuc2Zvcm09InRyYW5zbGF0ZSgwLC01LjY5MzIpIj4mI3hhOwkJCQkJPHRpdGxlIGlkPSJ0aXRsZTU1MjQ3Ij5TaGVldC4zOTgyPC90aXRsZT4mI3hhOwkJCQkJPHBhdGggaWQ9InBhdGg1NTI0OSIgaW5rc2NhcGU6Y29ubmVjdG9yLWN1cnZhdHVyZT0iMCIgc3R5bGU9ImZpbGw6IzRCQUNDNjsiIGQ9Ik0yNy4zMywzOC4yN2MwLDAuNjMtMC41MiwxLjE0LTEuMTQsMS4xNEgxLjE0ICAgICAgIEMwLjUxLDM5LjQxLDAsMzguOSwwLDM4LjI3VjI2Ljg5YzAtMC42MywwLjUxLTEuMTQsMS4xNC0xLjE0aDI1LjA1YzAuNjIsMCwxLjE0LDAuNTEsMS4xNCwxLjE0TDI3LjMzLDM4LjI3eiIvPiYjeGE7CQkJCTwvZz4mI3hhOwkJCQk8ZyBpZD0ic2hhcGUzOTgzLTEyIiB0cmFuc2Zvcm09InRyYW5zbGF0ZSg0LjU1NDU2LC00LjU1NDU2KSI+JiN4YTsJCQkJCTx0aXRsZSBpZD0idGl0bGU1NTI1MiI+U2hlZXQuMzk4MzwvdGl0bGU+JiN4YTsJCQkJCTxwYXRoIGlkPSJwYXRoNTUyNTQiIGlua3NjYXBlOmNvbm5lY3Rvci1jdXJ2YXR1cmU9IjAiIHN0eWxlPSJmaWxsOiNDQUQxRDg7IiBkPSJNMjEuNjMsMzguMjdIMHYxLjE0aDIxLjYzICAgICAgIGMwLjYzLDAsMS4xNC0wLjUxLDEuMTQtMS4xNHYtMS4xM0MyMi43NywzNy43NiwyMi4yNiwzOC4yNywyMS42MywzOC4yN3oiLz4mI3hhOwkJCQk8L2c+JiN4YTsJCQk8L2c+JiN4YTsJCTwvZz4mI3hhOwkJPGcgaWQ9Imdyb3VwMzk4NC0xNCIgdHJhbnNmb3JtPSJ0cmFuc2xhdGUoNS4wMDM3MiwtOS4xNDczNykiPiYjeGE7CQkJPHRpdGxlIGlkPSJ0aXRsZTU1MjU5Ij5YTUwuMzY4NzQ8L3RpdGxlPiYjeGE7CQkJPGcgaWQ9InNoYXBlMzk4NS0xNSI+JiN4YTsJCQkJPHRpdGxlIGlkPSJ0aXRsZTU1MjYxIj5TaGVldC4zOTg1PC90aXRsZT4mI3hhOwkJCQk8cGF0aCBpZD0icGF0aDU1MjYzIiBpbmtzY2FwZTpjb25uZWN0b3ItY3VydmF0dXJlPSIwIiBzdHlsZT0iZmlsbDojRkZGRkZGOyIgZD0iTTMuMDQsMzYuMzNsMS42LDMuMDhIMy40NWwtMS0yLjM5SDIuMzYgICAgICBsLTEuMDcsMi4zOUgwLjFsMS42LTMuMDhMMCwzMy4wNmgxLjE3bDEuMTEsMi41OGgwLjA4bDEuMjEtMi41OGgxLjE3TDMuMDQsMzYuMzN6Ii8+JiN4YTsJCQk8L2c+JiN4YTsJCQk8ZyBpZD0ic2hhcGUzOTg2LTE3IiB0cmFuc2Zvcm09InRyYW5zbGF0ZSg2LjE0NTQ0KSI+JiN4YTsJCQkJPHRpdGxlIGlkPSJ0aXRsZTU1MjY2Ij5TaGVldC4zOTg2PC90aXRsZT4mI3hhOwkJCQk8cGF0aCBpZD0icGF0aDU1MjY4IiBpbmtzY2FwZTpjb25uZWN0b3ItY3VydmF0dXJlPSIwIiBzdHlsZT0iZmlsbDojRkZGRkZGOyIgZD0iTTQuNzcsMzMuMDZoMS4wNHY2LjM1SDQuNzd2LTQuMzdsLTEuNDEsMy41NCAgICAgIGgtMC45bC0xLjQyLTMuNTR2NC4zN0gwdi02LjM1aDEuMDRsMS44Nyw0LjM0TDQuNzcsMzMuMDZ6Ii8+JiN4YTsJCQk8L2c+JiN4YTsJCQk8ZyBpZD0ic2hhcGUzOTg3LTE5IiB0cmFuc2Zvcm09InRyYW5zbGF0ZSgxMy41Mzc3KSI+JiN4YTsJCQkJPHRpdGxlIGlkPSJ0aXRsZTU1MjcxIj5TaGVldC4zOTg3PC90aXRsZT4mI3hhOwkJCQk8cGF0aCBpZD0icGF0aDU1MjczIiBpbmtzY2FwZTpjb25uZWN0b3ItY3VydmF0dXJlPSIwIiBzdHlsZT0iZmlsbDojRkZGRkZGOyIgZD0iTTEuMDQsMzMuMDZ2NS41N2gyLjl2MC43OEgwdi02LjM1SDEuMDR6Ii8+JiN4YTsJCQk8L2c+JiN4YTsJCTwvZz4mI3hhOwk8L2c+JiN4YTs8L2c+JiN4YTs8L3N2Zz4=;fontColor=#333333;fillColor=#448AB8;" vertex="1" parent="fkIsUnysvm8yx7V8iFc4-23">
          <mxGeometry x="57" y="25" width="32" height="36" as="geometry" />
        </mxCell>
        <mxCell id="fkIsUnysvm8yx7V8iFc4-20" value="" style="shape=image;verticalLabelPosition=bottom;labelBackgroundColor=#ffffff;verticalAlign=top;aspect=fixed;imageAspect=0;image=data:image/svg+xml,PHN2ZyB4bWxuczpjYz0iaHR0cDovL2NyZWF0aXZlY29tbW9ucy5vcmcvbnMjIiB4bWxuczpkYz0iaHR0cDovL3B1cmwub3JnL2RjL2VsZW1lbnRzLzEuMS8iIHhtbG5zOmlua3NjYXBlPSJodHRwOi8vd3d3Lmlua3NjYXBlLm9yZy9uYW1lc3BhY2VzL2lua3NjYXBlIiB4bWxuczpyZGY9Imh0dHA6Ly93d3cudzMub3JnLzE5OTkvMDIvMjItcmRmLXN5bnRheC1ucyMiIHhtbG5zOnNvZGlwb2RpPSJodHRwOi8vc29kaXBvZGkuc291cmNlZm9yZ2UubmV0L0RURC9zb2RpcG9kaS0wLmR0ZCIgeG1sbnM6c3ZnPSJodHRwOi8vd3d3LnczLm9yZy8yMDAwL3N2ZyIgeG1sbnM9Imh0dHA6Ly93d3cudzMub3JnLzIwMDAvc3ZnIiB4bWxuczp4bGluaz0iaHR0cDovL3d3dy53My5vcmcvMTk5OS94bGluayIgdmVyc2lvbj0iMS4xIiBpZD0ic3ZnNDk0MDMiIGlua3NjYXBlOnZlcnNpb249IjAuOTIuMyAoMjQwNTU0NiwgMjAxOC0wMy0xMSkiIHNvZGlwb2RpOmRvY25hbWU9Impzb25fMS5zdmciIHg9IjBweCIgeT0iMHB4IiB2aWV3Qm94PSIwIDAgMzEuODggMzYuNDQiIHN0eWxlPSJlbmFibGUtYmFja2dyb3VuZDpuZXcgMCAwIDMxLjg4IDM2LjQ0OyIgeG1sOnNwYWNlPSJwcmVzZXJ2ZSI+JiN4YTs8c29kaXBvZGk6bmFtZWR2aWV3IGJvcmRlcmNvbG9yPSIjNjY2NjY2IiBib3JkZXJvcGFjaXR5PSIxIiBmaXQtbWFyZ2luLWJvdHRvbT0iMCIgZml0LW1hcmdpbi1sZWZ0PSIwIiBmaXQtbWFyZ2luLXJpZ2h0PSIwIiBmaXQtbWFyZ2luLXRvcD0iMCIgZ3JpZHRvbGVyYW5jZT0iMTAiIGd1aWRldG9sZXJhbmNlPSIxMCIgaWQ9Im5hbWVkdmlldzQ5NDA1IiBpbmtzY2FwZTpjdXJyZW50LWxheWVyPSJzdmc0OTQwMyIgaW5rc2NhcGU6Y3g9IjIxLjI1NDYzOCIgaW5rc2NhcGU6Y3k9IjI0LjI5NDgzNyIgaW5rc2NhcGU6cGFnZW9wYWNpdHk9IjAiIGlua3NjYXBlOnBhZ2VzaGFkb3c9IjIiIGlua3NjYXBlOndpbmRvdy1oZWlnaHQ9IjEwMTciIGlua3NjYXBlOndpbmRvdy1tYXhpbWl6ZWQ9IjEiIGlua3NjYXBlOndpbmRvdy13aWR0aD0iMTkyMCIgaW5rc2NhcGU6d2luZG93LXg9Ii04IiBpbmtzY2FwZTp3aW5kb3cteT0iLTgiIGlua3NjYXBlOnpvb209IjE2Ljc0NzMwMSIgb2JqZWN0dG9sZXJhbmNlPSIxMCIgcGFnZWNvbG9yPSIjZmZmZmZmIiBzaG93Z3JpZD0iZmFsc2UiPiYjeGE7CTwvc29kaXBvZGk6bmFtZWR2aWV3PiYjeGE7PGcgaWQ9Imc0OTQwMSIgdHJhbnNmb3JtPSJ0cmFuc2xhdGUoLTEuMTk1MzEsLTEuMTk0NzI4NSkiPiYjeGE7CTx0aXRsZSBpZD0idGl0bGU0OTM0NSI+UGFnZS0xPC90aXRsZT4mI3hhOwk8ZyBpZD0iZ3JvdXA0MDA0LTEiIHRyYW5zZm9ybT0idHJhbnNsYXRlKDEuMTk1MzEsLTEuMTk1MzEpIj4mI3hhOwkJPHRpdGxlIGlkPSJ0aXRsZTQ5MzQ3Ij5KU09OICMxPC90aXRsZT4mI3hhOwkJPGcgaWQ9Imdyb3VwNDAwNS0yIj4mI3hhOwkJCTx0aXRsZSBpZD0idGl0bGU0OTM0OSI+RE9DICMxPC90aXRsZT4mI3hhOwkJCTxnIGlkPSJzaGFwZTQwMDYtMyIgdHJhbnNmb3JtPSJ0cmFuc2xhdGUoNC41NTQ1NikiPiYjeGE7CQkJCTx0aXRsZSBpZD0idGl0bGU0OTM1MSI+U2hlZXQuNDAwNjwvdGl0bGU+JiN4YTsJCQkJPHBhdGggaWQ9InBhdGg0OTM1MyIgaW5rc2NhcGU6Y29ubmVjdG9yLWN1cnZhdHVyZT0iMCIgc3R5bGU9ImZpbGw6I0UyRTVFNzsiIGQ9Ik0yLjI4LDIuMzlDMS4wMiwyLjM5LDAsMy40MiwwLDQuNjd2MzEuODggICAgICBjMCwxLjI1LDEuMDIsMi4yOCwyLjI4LDIuMjhoMjIuNzdjMS4yNSwwLDIuMjgtMS4wMywyLjI4LTIuMjhWMTEuNWwtOS4xMS05LjExSDIuMjh6Ii8+JiN4YTsJCQk8L2c+JiN4YTsJCQk8ZyBpZD0ic2hhcGU0MDA3LTUiIHRyYW5zZm9ybT0idHJhbnNsYXRlKDIyLjc3MjgsLTI3LjMyNzQpIj4mI3hhOwkJCQk8dGl0bGUgaWQ9InRpdGxlNDkzNTYiPlNoZWV0LjQwMDc8L3RpdGxlPiYjeGE7CQkJCTxwYXRoIGlkPSJwYXRoNDkzNTgiIGlua3NjYXBlOmNvbm5lY3Rvci1jdXJ2YXR1cmU9IjAiIHN0eWxlPSJmaWxsOiNCMEI3QkQ7IiBkPSJNMi4yOCwzOC44M2g2LjgzTDAsMjkuNzJ2Ni44MyAgICAgIEMwLDM3LjgsMS4wMiwzOC44MywyLjI4LDM4LjgzeiIvPiYjeGE7CQkJPC9nPiYjeGE7CQkJPGcgaWQ9InNoYXBlNDAwOC03IiB0cmFuc2Zvcm09InRyYW5zbGF0ZSgyNS4wNTAxLC0yMC40OTU1KSI+JiN4YTsJCQkJPHRpdGxlIGlkPSJ0aXRsZTQ5MzYxIj5TaGVldC40MDA4PC90aXRsZT4mI3hhOwkJCQk8cGF0aCBpZD0icGF0aDQ5MzYzIiBpbmtzY2FwZTpjb25uZWN0b3ItY3VydmF0dXJlPSIwIiBzdHlsZT0iZmlsbDojQ0FEMUQ4OyIgZD0iTTYuODMsMzguODNMMCwzMmg2LjgzVjM4LjgzeiIvPiYjeGE7CQkJPC9nPiYjeGE7CQkJPGcgaWQ9InNoYXBlNDAwOS05IiB0cmFuc2Zvcm09InRyYW5zbGF0ZSgwLC01LjY5MzIpIj4mI3hhOwkJCQk8dGl0bGUgaWQ9InRpdGxlNDkzNjYiPlNoZWV0LjQwMDk8L3RpdGxlPiYjeGE7CQkJCTxwYXRoIGlkPSJwYXRoNDkzNjgiIGlua3NjYXBlOmNvbm5lY3Rvci1jdXJ2YXR1cmU9IjAiIHN0eWxlPSJmaWxsOiNFOUFDNDc7IiBkPSJNMjcuMzMsMzcuNjljMCwwLjYyLTAuNTIsMS4xNC0xLjE0LDEuMTRIMS4xNCAgICAgIEMwLjUxLDM4LjgzLDAsMzguMzEsMCwzNy42OVYyNi4zYzAtMC42MiwwLjUxLTEuMTQsMS4xNC0xLjE0aDI1LjA1YzAuNjIsMCwxLjE0LDAuNTIsMS4xNCwxLjE0TDI3LjMzLDM3LjY5eiIvPiYjeGE7CQkJPC9nPiYjeGE7CQkJPGcgaWQ9InNoYXBlNDAxMC0xMSIgdHJhbnNmb3JtPSJ0cmFuc2xhdGUoNC41NTQ1NiwtNC41NTQ1NikiPiYjeGE7CQkJCTx0aXRsZSBpZD0idGl0bGU0OTM3MSI+U2hlZXQuNDAxMDwvdGl0bGU+JiN4YTsJCQkJPHBhdGggaWQ9InBhdGg0OTM3MyIgaW5rc2NhcGU6Y29ubmVjdG9yLWN1cnZhdHVyZT0iMCIgc3R5bGU9ImZpbGw6I0NBRDFEODsiIGQ9Ik0yMS42MywzNy42OUgwdjEuMTRoMjEuNjMgICAgICBjMC42MywwLDEuMTQtMC41MiwxLjE0LTEuMTR2LTEuMTRDMjIuNzcsMzcuMTgsMjIuMjYsMzcuNjksMjEuNjMsMzcuNjl6Ii8+JiN4YTsJCQk8L2c+JiN4YTsJCTwvZz4mI3hhOwkJPGcgaWQ9Imdyb3VwNDAxMS0xMyIgdHJhbnNmb3JtPSJ0cmFuc2xhdGUoMS45ODUzOCwtOC45MDQ3NykiPiYjeGE7CQkJPHRpdGxlIGlkPSJ0aXRsZTQ5Mzc3Ij5KU09OLjM2MzM5PC90aXRsZT4mI3hhOwkJCTxnIGlkPSJzaGFwZTQwMTItMTQiIHRyYW5zZm9ybT0idHJhbnNsYXRlKDAsLTYuNDA0MDZlLTUpIj4mI3hhOwkJCQk8dGl0bGUgaWQ9InRpdGxlNDkzNzkiPlNoZWV0LjQwMTI8L3RpdGxlPiYjeGE7CQkJCTxwYXRoIGlkPSJwYXRoNDkzODEiIGlua3NjYXBlOmNvbm5lY3Rvci1jdXJ2YXR1cmU9IjAiIHN0eWxlPSJmaWxsOiNGRkZGRkY7IiBkPSJNNC4yLDMxLjc4djUuMzRjMCwwLjMzLTAuMDYsMC42LTAuMTgsMC44MiAgICAgIGMtMC4xMiwwLjIyLTAuMjgsMC40LTAuNDcsMC41M2MtMC4yLDAuMTMtMC40MywwLjIzLTAuNjksMC4yOHMtMC41MiwwLjA4LTAuNzksMC4wOGMtMC4xNCwwLTAuMy0wLjAyLTAuNDgtMC4wNSAgICAgIGMtMC4xOS0wLjAyLTAuMzgtMC4wNy0wLjU3LTAuMTNjLTAuMi0wLjA1LTAuMzgtMC4xMi0wLjU2LTAuMkMwLjI4LDM4LjM4LDAuMTIsMzguMywwLDM4LjJsMC40Ny0wLjc1ICAgICAgYzAuMDcsMC4wNCwwLjE1LDAuMDksMC4yNywwLjEzYzAuMTIsMC4wNSwwLjI0LDAuMDksMC4zOCwwLjEzYzAuMTMsMC4wNCwwLjI4LDAuMDgsMC40MywwLjExYzAuMTQsMC4wMywwLjI4LDAuMDUsMC40MSwwLjA1ICAgICAgYzAuMzMsMCwwLjU5LTAuMDcsMC43OS0wLjE5YzAuMi0wLjEzLDAuMy0wLjM1LDAuMzEtMC42NXYtNS4yNUw0LjIsMzEuNzh6Ii8+JiN4YTsJCQk8L2c+JiN4YTsJCQk8ZyBpZD0ic2hhcGU0MDEzLTE2IiB0cmFuc2Zvcm09InRyYW5zbGF0ZSg1Ljc3MDA2LC0wLjAwOTQ3ODAxKSI+JiN4YTsJCQkJPHRpdGxlIGlkPSJ0aXRsZTQ5Mzg0Ij5TaGVldC40MDEzPC90aXRsZT4mI3hhOwkJCQk8cGF0aCBpZD0icGF0aDQ5Mzg2IiBpbmtzY2FwZTpjb25uZWN0b3ItY3VydmF0dXJlPSIwIiBzdHlsZT0iZmlsbDojRkZGRkZGOyIgZD0iTTMuOTgsMzYuOTFjMCwwLjI1LTAuMDUsMC40OS0wLjE1LDAuNzIgICAgICBjLTAuMSwwLjIzLTAuMjUsMC40NC0wLjQzLDAuNjJjLTAuMTksMC4xNy0wLjQyLDAuMzEtMC42OSwwLjQyYy0wLjI3LDAuMS0wLjU4LDAuMTYtMC45MywwLjE2Yy0wLjE1LDAtMC4zLTAuMDEtMC40Ni0wLjAzICAgICAgQzEuMTYsMzguNzksMSwzOC43NiwwLjg0LDM4LjczYy0wLjE2LTAuMDQtMC4zMi0wLjA5LTAuNDYtMC4xNkMwLjIzLDM4LjUxLDAuMTEsMzguNDMsMCwzOC4zM2wwLjItMC44ICAgICAgYzAuMDgsMC4wNSwwLjE5LDAuMSwwLjMzLDAuMTVjMC4xMywwLjA0LDAuMjcsMC4wOSwwLjQxLDAuMTNzMC4yOCwwLjA3LDAuNDMsMC4xYzAuMTQsMC4wMiwwLjI3LDAuMDMsMC40LDAuMDMgICAgICBjMC4zOCwwLDAuNjctMC4wOSwwLjg3LTAuMjZjMC4yLTAuMTgsMC4zLTAuNDQsMC4zLTAuNzljMC0wLjIxLTAuMDctMC4zOS0wLjIxLTAuNTRjLTAuMTUtMC4xNS0wLjMyLTAuMjgtMC41NC0wLjQgICAgICBjLTAuMjEtMC4xMi0wLjQ0LTAuMjUtMC42OS0wLjM3Yy0wLjI1LTAuMTItMC40OC0wLjI2LTAuNy0wLjQyYy0wLjIyLTAuMTctMC40LTAuMzYtMC41NC0wLjU5Yy0wLjE0LTAuMjItMC4yMS0wLjUtMC4yMS0wLjgzICAgICAgYzAtMC4zMSwwLjA1LTAuNTgsMC4xNi0wLjgxYzAuMTItMC4yNCwwLjI3LTAuNDQsMC40Ni0wLjZjMC4xOC0wLjE3LDAuNC0wLjI5LDAuNjYtMC4zOGMwLjI1LTAuMDksMC41MS0wLjEzLDAuNzktMC4xMyAgICAgIGMwLjI5LDAsMC41OCwwLjAzLDAuODcsMC4wOHMwLjUyLDAuMTQsMC43LDAuMjVjLTAuMDMsMC4wOC0wLjA4LDAuMTctMC4xMywwLjI3Yy0wLjA1LDAuMS0wLjA5LDAuMTktMC4xNCwwLjI3ICAgICAgYy0wLjA0LDAuMDgtMC4wOCwwLjE1LTAuMTEsMC4yMWMtMC4wMywwLjA1LTAuMDUsMC4wOS0wLjA1LDAuMDljLTAuMDQtMC4wMi0wLjA4LTAuMDQtMC4xMy0wLjA3Yy0wLjA1LTAuMDMtMC4xMS0wLjA2LTAuMi0wLjEgICAgICBjLTAuMDktMC4wMy0wLjItMC4wNS0wLjM0LTAuMDZjLTAuMTUtMC4wMS0wLjMzLTAuMDEtMC41NSwwLjAxYy0wLjEzLDAuMDEtMC4yNCwwLjA1LTAuMzYsMC4xMWMtMC4xMSwwLjA2LTAuMjEsMC4xMy0wLjI5LDAuMjEgICAgICBjLTAuMDksMC4wOS0wLjE2LDAuMTktMC4yMSwwLjNDMS4xMywzMy41LDEuMTEsMzMuNiwxLjExLDMzLjdjMCwwLjI1LDAuMDcsMC40NSwwLjIxLDAuNmMwLjE0LDAuMTUsMC4zMiwwLjI5LDAuNTMsMC40ICAgICAgYzAuMjEsMC4xMiwwLjQ0LDAuMjMsMC42OSwwLjM0YzAuMjUsMC4xLDAuNDgsMC4yNCwwLjY5LDAuMzljMC4yMiwwLjE2LDAuNCwwLjM1LDAuNTQsMC41OEMzLjkxLDM2LjI0LDMuOTgsMzYuNTQsMy45OCwzNi45MXoiLz4mI3hhOwkJCTwvZz4mI3hhOwkJCTxnIGlkPSJzaGFwZTQwMTQtMTgiIHRyYW5zZm9ybT0idHJhbnNsYXRlKDEwLjc3ODQpIj4mI3hhOwkJCQk8dGl0bGUgaWQ9InRpdGxlNDkzODkiPlNoZWV0LjQwMTQ8L3RpdGxlPiYjeGE7CQkJCTxwYXRoIGlkPSJwYXRoNDkzOTEiIGlua3NjYXBlOmNvbm5lY3Rvci1jdXJ2YXR1cmU9IjAiIHN0eWxlPSJmaWxsOiNGRkZGRkY7IiBkPSJNNS43MSwzNS4zMmMwLDAuNTgtMC4wNywxLjA4LTAuMjEsMS41MiAgICAgIGMtMC4xNSwwLjQ1LTAuMzUsMC44MS0wLjYxLDEuMWMtMC4yNiwwLjI5LTAuNTYsMC41MS0wLjksMC42NmMtMC4zNSwwLjE1LTAuNzIsMC4yMy0xLjEzLDAuMjNzLTAuNzktMC4wOC0xLjEzLTAuMjMgICAgICBjLTAuMzUtMC4xNS0wLjY1LTAuMzctMC45MS0wLjY2Yy0wLjI1LTAuMjktMC40Ni0wLjY1LTAuNi0xLjFDMC4wNywzNi40LDAsMzUuOSwwLDM1LjMyYzAtMC41OCwwLjA3LTEuMDksMC4yMi0xLjUyICAgICAgYzAuMTQtMC40NCwwLjM1LTAuOCwwLjYtMS4xYzAuMjYtMC4yOSwwLjU2LTAuNTEsMC45MS0wLjY2YzAuMzQtMC4xNSwwLjcyLTAuMjMsMS4xMy0wLjIzczAuNzgsMC4wOCwxLjEzLDAuMjMgICAgICBjMC4zNCwwLjE1LDAuNjQsMC4zNywwLjksMC42NmMwLjI2LDAuMywwLjQ2LDAuNjYsMC42MSwxLjFDNS42NCwzNC4yMyw1LjcxLDM0Ljc0LDUuNzEsMzUuMzJ6IE0yLjgzLDM3LjkyICAgICAgYzAuMjMsMCwwLjQ1LTAuMDUsMC42Ni0wLjE0YzAuMi0wLjA5LDAuMzktMC4yNCwwLjU1LTAuNDRjMC4xNy0wLjIxLDAuMy0wLjQ3LDAuMzktMC44MWMwLjA5LTAuMzMsMC4xNC0wLjczLDAuMTUtMS4yMSAgICAgIGMtMC4wMS0wLjQ3LTAuMDYtMC44Ni0wLjE1LTEuMTljLTAuMDktMC4zMi0wLjIxLTAuNTktMC4zNy0wLjhjLTAuMTYtMC4yMS0wLjM0LTAuMzctMC41NC0wLjQ2cy0wLjQxLTAuMTQtMC42NC0wLjE0ICAgICAgYy0wLjIzLDAtMC40NCwwLjA0LTAuNjUsMC4xM3MtMC40LDAuMjQtMC41NiwwLjQ0Yy0wLjE2LDAuMjEtMC4yOSwwLjQ4LTAuMzksMC44MWMtMC4wOSwwLjMzLTAuMTQsMC43My0wLjE1LDEuMjEgICAgICBjMC4wMSwwLjQ2LDAuMDYsMC44NiwwLjE1LDEuMTljMC4wOSwwLjMzLDAuMjEsMC42LDAuMzcsMC44MWMwLjE2LDAuMiwwLjM0LDAuMzUsMC41NCwwLjQ1QzIuMzksMzcuODcsMi42MSwzNy45MiwyLjgzLDM3LjkyeiIvPiYjeGE7CQkJPC9nPiYjeGE7CQkJPGcgaWQ9InNoYXBlNDAxNS0yMCIgdHJhbnNmb3JtPSJ0cmFuc2xhdGUoMTguMDY1OSwtMC4wNDYzMDE0KSI+JiN4YTsJCQkJPHRpdGxlIGlkPSJ0aXRsZTQ5Mzk0Ij5TaGVldC40MDE1PC90aXRsZT4mI3hhOwkJCQk8cGF0aCBpZD0icGF0aDQ5Mzk2IiBpbmtzY2FwZTpjb25uZWN0b3ItY3VydmF0dXJlPSIwIiBzdHlsZT0iZmlsbDojRkZGRkZGOyIgZD0iTTQuOTYsMzEuOTd2Ni44NkgzLjgzTDEuMTQsMzQuMXY0LjczSDB2LTYuODYgICAgICBoMS4xNGwyLjY5LDQuNzN2LTQuNzNMNC45NiwzMS45N3oiLz4mI3hhOwkJCTwvZz4mI3hhOwkJPC9nPiYjeGE7CTwvZz4mI3hhOzwvZz4mI3hhOzwvc3ZnPg==;fontColor=#333333;fillColor=#448AB8;" vertex="1" parent="fkIsUnysvm8yx7V8iFc4-23">
          <mxGeometry x="17" y="25" width="32" height="36" as="geometry" />
        </mxCell>
        <mxCell id="fkIsUnysvm8yx7V8iFc4-33" value="" style="edgeStyle=orthogonalEdgeStyle;rounded=0;orthogonalLoop=1;jettySize=auto;html=1;strokeColor=#808080;fontColor=#333333;startArrow=classic;startFill=1;endArrow=classic;endFill=1;" edge="1" parent="1" source="fkIsUnysvm8yx7V8iFc4-26">
          <mxGeometry relative="1" as="geometry">
            <mxPoint x="411" y="310" as="targetPoint" />
          </mxGeometry>
        </mxCell>
        <mxCell id="fkIsUnysvm8yx7V8iFc4-26" value="" style="shape=image;verticalLabelPosition=bottom;labelBackgroundColor=#ffffff;verticalAlign=top;aspect=fixed;imageAspect=0;image=data:image/svg+xml,PHN2ZyB4bWxuczpkYz0iaHR0cDovL3B1cmwub3JnL2RjL2VsZW1lbnRzLzEuMS8iIHhtbG5zOmNjPSJodHRwOi8vY3JlYXRpdmVjb21tb25zLm9yZy9ucyMiIHhtbG5zOnJkZj0iaHR0cDovL3d3dy53My5vcmcvMTk5OS8wMi8yMi1yZGYtc3ludGF4LW5zIyIgeG1sbnM6c3ZnPSJodHRwOi8vd3d3LnczLm9yZy8yMDAwL3N2ZyIgeG1sbnM9Imh0dHA6Ly93d3cudzMub3JnLzIwMDAvc3ZnIiB4bWxuczpzb2RpcG9kaT0iaHR0cDovL3NvZGlwb2RpLnNvdXJjZWZvcmdlLm5ldC9EVEQvc29kaXBvZGktMC5kdGQiIHhtbG5zOmlua3NjYXBlPSJodHRwOi8vd3d3Lmlua3NjYXBlLm9yZy9uYW1lc3BhY2VzL2lua3NjYXBlIiB2ZXJzaW9uPSIxLjEiIGlkPSJzdmcyNjM3MTQiIGlua3NjYXBlOnZlcnNpb249IjAuOTIuMyAoMjQwNTU0NiwgMjAxOC0wMy0xMSkiIHNvZGlwb2RpOmRvY25hbWU9InNxbF9zZXJ2ZXIuc3ZnIiB4PSIwcHgiIHk9IjBweCIgdmlld0JveD0iMCAwIDQ4LjQxIDY5Ljc1IiBzdHlsZT0iZW5hYmxlLWJhY2tncm91bmQ6bmV3IDAgMCA0OC40MSA2OS43NTsiIHhtbDpzcGFjZT0icHJlc2VydmUiPjxtZXRhZGF0YSBpZD0ibWV0YWRhdGExNDM4OTgiPjxyZGY6UkRGPjxjYzpXb3JrIHJkZjphYm91dD0iIj48ZGM6Zm9ybWF0PmltYWdlL3N2Zyt4bWw8L2RjOmZvcm1hdD48ZGM6dHlwZSByZGY6cmVzb3VyY2U9Imh0dHA6Ly9wdXJsLm9yZy9kYy9kY21pdHlwZS9TdGlsbEltYWdlIi8+PGRjOnRpdGxlLz48L2NjOldvcms+PC9yZGY6UkRGPjwvbWV0YWRhdGE+PGRlZnMgaWQ9ImRlZnMxNDM4OTYiPiYjeGE7CSYjeGE7CSYjeGE7JiN4YTsJCSYjeGE7CQkmI3hhOwkJJiN4YTsJJiN4YTsJCQkmI3hhOwkJCSYjeGE7CQkJJiN4YTsJCQkmI3hhOwkJCSYjeGE7CQkJJiN4YTsJCQkmI3hhOwkJCSYjeGE7CQkJJiN4YTsJCQkmI3hhOwkJJiN4YTsJCQkmI3hhOwkJCSYjeGE7CQkJJiN4YTsJCSYjeGE7CQkJCSYjeGE7CQkJCSYjeGE7CQkJCQkmI3hhOwkJCSYjeGE7CQkJCSYjeGE7CQkJCSYjeGE7CQkJCSYjeGE7CQkJCSYjeGE7CQkJCSYjeGE7CQkJCSYjeGE7CQkJJiN4YTsJCQkJJiN4YTsJCQkJJiN4YTsJCQkJJiN4YTsJCQkmI3hhOwkJCQkmI3hhOwkJCQkmI3hhOwkJCQkmI3hhOwkJCSYjeGE7CQkJCSYjeGE7CQkJCSYjeGE7CQkJCSYjeGE7CQkJJiN4YTsJCQkJJiN4YTsJCQkJJiN4YTsJCQkJJiN4YTsJCQkmI3hhOwkJCQkmI3hhOwkJCQkmI3hhOwkJCQkmI3hhOwkJCSYjeGE7CQkJCSYjeGE7CQkJCSYjeGE7CQkJCSYjeGE7CQkJJiN4YTsJCQkJJiN4YTsJCQkJJiN4YTsJCQkJJiN4YTsJCQkmI3hhOwkJCQkmI3hhOwkJCQkmI3hhOwkJCQkmI3hhOwkJCSYjeGE7CQkJCSYjeGE7CQkJCSYjeGE7CQkJCSYjeGE7CQkJJiN4YTsJCQkJCSYjeGE7CQkJCSYjeGE7CQkJCQkmI3hhOwkJCQkmI3hhOwkJCQkJJiN4YTsJCQkJJiN4YTsJCQkJCSYjeGE7CQkJCSYjeGE7CQkJCQkmI3hhOwkJCQkmI3hhOwkJCQkJJiN4YTsJCQkJJiN4YTsJCQkJCSYjeGE7CQkJCSYjeGE7CQkJCQkmI3hhOwkJCQkmI3hhOwkJCQkJJiN4YTsJCQkJJiN4YTsJCQkJCSYjeGE7CQkJCQkmI3hhOwkJCQkmI3hhOwkJCQkJJiN4YTsJCQkJCSYjeGE7CQkJCSYjeGE7CQkJCQkmI3hhOwkJCQkJJiN4YTsJCQkJJiN4YTsJCQkJCSYjeGE7CQkJCQkmI3hhOwkJCQkJJiN4YTsJCQkJCSYjeGE7CQkJCQkmI3hhOwkJCQkJJiN4YTsJCQkJCSYjeGE7CQkJCQkmI3hhOwkJCQkJJiN4YTsJCQkJCSYjeGE7CQkJCSYjeGE7CQkJCQkmI3hhOwkJCQkJJiN4YTsJCQkJCQkmI3hhOwkJCQkmI3hhOwkJCQkJCSYjeGE7CQkJCQkJJiN4YTsJCQkJCSYjeGE7CQkJCQkJJiN4YTsJCQkJCQkmI3hhOwkJCQkJJiN4YTsJCQkJCQkmI3hhOwkJCQkJCSYjeGE7CQkJCQkmI3hhOwkJCQkJCSYjeGE7CQkJCQkJJiN4YTsJCQkJCSYjeGE7CQkJCQkJJiN4YTsJCQkJCQkmI3hhOwkJCQkJJiN4YTsJCQkJCQkmI3hhOwkJCQkJCSYjeGE7CQkJCQkmI3hhOwkJCQkJCSYjeGE7CQkJCQkJJiN4YTsJCQkJCSYjeGE7CQkJCQkJJiN4YTsJCQkJCQkmI3hhOwkJCQkJJiN4YTsJCQkJCQkmI3hhOwkJCQkJCSYjeGE7CQkJCQkmI3hhOwkJCQkJCSYjeGE7CQkJCQkmI3hhOwkJCQkJCSYjeGE7CQkJCQkmI3hhOwkJCQkJCSYjeGE7CQkJCQkmI3hhOwkJCQkJCSYjeGE7CQkJCQkmI3hhOwkJCQkJCSYjeGE7CQkJCQkmI3hhOwkJCQkJCSYjeGE7CQkJCQkmI3hhOwkJCQkJCSYjeGE7CQkJCQkmI3hhOwkJCQkJCSYjeGE7CQkJCQk8L2RlZnM+JiN4YTs8ZmlsdGVyIGlkPSJmaWx0ZXJfMiI+JiN4YTsJPGZlR2F1c3NpYW5CbHVyIGlkPSJmZUdhdXNzaWFuQmx1cjI2MzU0OSIgc3RkRGV2aWF0aW9uPSIyIi8+JiN4YTs8L2ZpbHRlcj4mI3hhOzxzb2RpcG9kaTpuYW1lZHZpZXcgYm9yZGVyY29sb3I9IiM2NjY2NjYiIGJvcmRlcm9wYWNpdHk9IjEiIGZpdC1tYXJnaW4tYm90dG9tPSIwIiBmaXQtbWFyZ2luLWxlZnQ9IjAiIGZpdC1tYXJnaW4tcmlnaHQ9IjAiIGZpdC1tYXJnaW4tdG9wPSIwIiBncmlkdG9sZXJhbmNlPSIxMCIgZ3VpZGV0b2xlcmFuY2U9IjEwIiBpZD0ibmFtZWR2aWV3MjYzNzE2IiBpbmtzY2FwZTpjdXJyZW50LWxheWVyPSJzdmcyNjM3MTQiIGlua3NjYXBlOmN4PSIyOC41NjA4NjUiIGlua3NjYXBlOmN5PSIxMy40NTY0MDciIGlua3NjYXBlOnBhZ2VvcGFjaXR5PSIwIiBpbmtzY2FwZTpwYWdlc2hhZG93PSIyIiBpbmtzY2FwZTp3aW5kb3ctaGVpZ2h0PSIxMDE3IiBpbmtzY2FwZTp3aW5kb3ctbWF4aW1pemVkPSIxIiBpbmtzY2FwZTp3aW5kb3ctd2lkdGg9IjE5MjAiIGlua3NjYXBlOndpbmRvdy14PSItOCIgaW5rc2NhcGU6d2luZG93LXk9Ii04IiBpbmtzY2FwZTp6b29tPSI1LjgzNjk3NDIiIG9iamVjdHRvbGVyYW5jZT0iMTAiIHBhZ2Vjb2xvcj0iI2ZmZmZmZiIgc2hvd2dyaWQ9ImZhbHNlIj4mI3hhOwk8L3NvZGlwb2RpOm5hbWVkdmlldz4mI3hhOzxyZWN0IGhlaWdodD0iNjguMjUiIHdpZHRoPSIzOS43NSIgc3R5bGU9ImZpbGw6I2ZmZmZmZjtzdHJva2U6IzU1NmE4YTtzdHJva2Utd2lkdGg6MS41O3N0cm9rZS1taXRlcmxpbWl0OjMiIHk9IjAuNzQ2NzAwMjkiIHg9IjAuNzQ5OTMxNTEiIGlkPSJyZWN0MjYzNTYzIi8+PHJlY3QgaWQ9InJlY3QyNjM1NzAiIHg9IjIwLjI0OTkzMSIgeT0iMS40OTY3MDA0IiBzdHlsZT0iZmlsbDojZTVlNWU1IiB3aWR0aD0iMTkuNSIgaGVpZ2h0PSI2Ni43NSIvPjxyZWN0IGlkPSJyZWN0MjYzNTc1IiB4PSIyLjI0OTkzMTYiIHk9IjE3Ljk5NjY5NiIgc3R5bGU9ImZpbGw6IzJiYzdmNCIgd2lkdGg9IjE4IiBoZWlnaHQ9IjIuMjUiLz48cmVjdCBpZD0icmVjdDI2MzU4MCIgeD0iMi4yNDk5MzE2IiB5PSI3LjQ5NjY5NjUiIHN0eWxlPSJmaWxsOm5vbmUiIHdpZHRoPSIyNyIgaGVpZ2h0PSIyLjI1Ii8+PHJlY3QgaWQ9InJlY3QyNjM1ODUiIHg9IjIuMjQ5OTMxNiIgeT0iNy40OTY2OTY1IiBzdHlsZT0iZmlsbDpub25lIiB3aWR0aD0iMjciIGhlaWdodD0iMi4yNSIvPjxyZWN0IGlkPSJyZWN0MjYzNTkwIiB4PSIyLjI0OTkzMTYiIHk9IjEyLjc0NjY5NiIgc3R5bGU9ImZpbGw6IzJiYzdmNCIgd2lkdGg9IjE4IiBoZWlnaHQ9IjIuMjUiLz48cmVjdCBpZD0icmVjdDI2MzU5NSIgeD0iMi4yNDk5MzE2IiB5PSI3LjQ5NjY5NjUiIHN0eWxlPSJmaWxsOiMyYmM3ZjQiIHdpZHRoPSIxOCIgaGVpZ2h0PSIyLjI1Ii8+PHJlY3QgaWQ9InJlY3QyNjM2MDAiIHg9IjIwLjI0OTkzMSIgeT0iMTcuOTk2Njk2IiBzdHlsZT0iZmlsbDojNTU2YThhIiB3aWR0aD0iMTkuNSIgaGVpZ2h0PSIyLjI1Ii8+PHJlY3QgaWQ9InJlY3QyNjM2MDUiIHg9IjIwLjI0OTkzMSIgeT0iMTIuNzQ2Njk2IiBzdHlsZT0iZmlsbDojNTU2YThhIiB3aWR0aD0iMTkuNSIgaGVpZ2h0PSIyLjI1Ii8+PHJlY3QgaWQ9InJlY3QyNjM2MTAiIHg9IjIwLjI0OTkzMSIgeT0iNy40OTY2OTY1IiBzdHlsZT0iZmlsbDojNTU2YThhIiB3aWR0aD0iMTkuNSIgaGVpZ2h0PSIyLjI1Ii8+PHJlY3QgaGVpZ2h0PSIyLjI1IiB3aWR0aD0iMi4yNSIgc3R5bGU9ImZpbGw6IzU1NmE4YSIgeT0iNy40OTY2OTY1IiB4PSIxLjQ5OTkzMTUiIGlkPSJyZWN0MjYzNjE2Ii8+PHJlY3QgaGVpZ2h0PSIyLjI1IiB3aWR0aD0iMi4yNSIgc3R5bGU9ImZpbGw6IzU1NmE4YSIgeT0iMTIuNzQ2Njk2IiB4PSIxLjQ5OTkzMTUiIGlkPSJyZWN0MjYzNjIxIi8+PHJlY3QgaGVpZ2h0PSIyLjI1IiB3aWR0aD0iMi4yNSIgc3R5bGU9ImZpbGw6IzU1NmE4YSIgeT0iMTcuOTk2Njk2IiB4PSIxLjQ5OTkzMTUiIGlkPSJyZWN0MjYzNjI2Ii8+PHBhdGggaWQ9InBhdGgyNjM2MzIiIGlua3NjYXBlOmNvbm5lY3Rvci1jdXJ2YXR1cmU9IjAiIHN0eWxlPSJmaWxsOiNmZmZmZmY7c3Ryb2tlOiMyMDc1Yjg7c3Ryb2tlLXdpZHRoOjEuNTtzdHJva2UtbWl0ZXJsaW1pdDozIiBkPSJtIDIyLjcxODIzMiw2OS4wMDQwOTkgLTguMjcsLTE0LjIzIDguMjcsLTE0LjI0IGggMTYuNTUgbCA4LjI3LDE0LjI0IC04LjI3LDE0LjIzIHoiLz48cGF0aCBpZD0icGF0aDI2MzY0MyIgaW5rc2NhcGU6Y29ubmVjdG9yLWN1cnZhdHVyZT0iMCIgc3R5bGU9ImZpbGw6IzAwNzJjNiIgZD0ibSAyMi4zODI0MzIsNDYuMjQ5OTY5IHYgMTYuNDQgYyAwLDEuNzEgMy44MiwzLjA5IDguNTMsMy4wOSB2IC0xOS41MyB6Ii8+PHBhdGggaWQ9InBhdGgyNjM2NTEiIGlua3NjYXBlOmNvbm5lY3Rvci1jdXJ2YXR1cmU9IjAiIHN0eWxlPSJmaWxsOiMwMDcyYzYiIGQ9Im0gMzAuNzk5MzIyLDY1Ljc3OTUxNCBoIDAuMTIgYyA0LjcxLDAgOC41MywtMS4zOCA4LjUzLC0zLjA5IHYgLTE2LjQ0IGggLTguNjUgeiIvPjxwYXRoIGlkPSJwYXRoMjYzNjU5IiBpbmtzY2FwZTpjb25uZWN0b3ItY3VydmF0dXJlPSIwIiBzdHlsZT0iZmlsbDojZmZmZmZmO2ZpbGwtb3BhY2l0eTowLjE1IiBkPSJtIDMwLjc5OTMyMiw2NS43Nzk1MTQgaCAwLjEyIGMgNC43MSwwIDguNTMsLTEuMzggOC41MywtMy4wOSB2IC0xNi40NCBoIC04LjY1IHoiLz48cGF0aCBpZD0icGF0aDI2MzY2NyIgaW5rc2NhcGU6Y29ubmVjdG9yLWN1cnZhdHVyZT0iMCIgc3R5bGU9ImZpbGw6I2ZmZmZmZiIgZD0ibSAzOS40NTI0MzIsNDYuMjQ3NzY5IGMgMCwxLjcxIC0zLjgyLDMuMDkgLTguNTQsMy4wOSAtNC43MSwwIC04LjUzLC0xLjM4IC04LjUzLC0zLjA5IDAsLTEuNyAzLjgyLC0zLjA5IDguNTMsLTMuMDkgNC43MiwwIDguNTQsMS4zOSA4LjU0LDMuMDkgeiIvPjxwYXRoIGlkPSJwYXRoMjYzNjc1IiBpbmtzY2FwZTpjb25uZWN0b3ItY3VydmF0dXJlPSIwIiBzdHlsZT0iZmlsbDojN2ZiYTAwIiBkPSJtIDM3LjcwNjczMiw0Ni4wNjg0NjkgYyAwLDEuMTMgLTMuMDQsMi4wNCAtNi43OSwyLjA0IC0zLjc1LDAgLTYuNzksLTAuOTEgLTYuNzksLTIuMDQgMCwtMS4xMiAzLjA0LC0yLjA0IDYuNzksLTIuMDQgMy43NSwwIDYuNzksMC45MiA2Ljc5LDIuMDQgeiIvPjxwYXRoIGlkPSJwYXRoMjYzNjgzIiBpbmtzY2FwZTpjb25uZWN0b3ItY3VydmF0dXJlPSIwIiBzdHlsZT0iZmlsbDojYjhkNDMyIiBkPSJtIDM2LjI4NzE4Miw0Ny4zMTUyNjkgYyAwLjg4LC0wLjM0IDEuNDIsLTAuNzcgMS40MiwtMS4yNCAwLC0xLjEzIC0zLjA0LC0yLjA0IC02Ljc5LC0yLjA0IC0zLjc1LDAgLTYuNzksMC45MSAtNi43OSwyLjA0IDAsMC40NyAwLjUzLDAuOSAxLjQyLDEuMjQgMS4yNCwtMC40OCAzLjE4LC0wLjc5IDUuMzcsLTAuNzkgMi4xOSwwIDQuMTIsMC4zMSA1LjM3LDAuNzkgeiIvPjxwYXRoIGlkPSJwYXRoMjYzNjkxIiBpbmtzY2FwZTpjb25uZWN0b3ItY3VydmF0dXJlPSIwIiBzdHlsZT0iZmlsbDojZmZmZmZmIiBkPSJtIDI4LjIwODE0Miw1Ny42Njc2NDkgYyAwLDAuNTEgLTAuMTksMC45IC0wLjU2LDEuMTggLTAuMzcsMC4yOCAtMC44OCwwLjQyIC0xLjUzLDAuNDIgLTAuNTYsMCAtMS4wMiwtMC4xIC0xLjQsLTAuMyB2IC0xLjIgYyAwLjQzLDAuMzcgMC45MSwwLjU1IDEuNDMsMC41NSAwLjI1LDAgMC40NCwtMC4wNSAwLjU4LC0wLjE1IDAuMTMsLTAuMSAwLjIsLTAuMjMgMC4yLC0wLjQgMCwtMC4xNiAtMC4wNiwtMC4zIC0wLjIsLTAuNDIgLTAuMTMsLTAuMTIgLTAuMzksLTAuMjggLTAuOCwtMC40NyAtMC44MiwtMC4zOCAtMS4yMywtMC45MSAtMS4yMywtMS41OCAwLC0wLjQ4IDAuMTgsLTAuODcgMC41NCwtMS4xNiAwLjM2LC0wLjI5IDAuODMsLTAuNDQgMS40MiwtMC40NCAwLjUzLDAgMC45NywwLjA3IDEuMzEsMC4yMSB2IDEuMTIgYyAtMC4zNiwtMC4yNSAtMC43NywtMC4zNyAtMS4yNCwtMC4zNyAtMC4yMywwIC0wLjQxLDAuMDUgLTAuNTUsMC4xNSAtMC4xNCwwLjA5IC0wLjIsMC4yMyAtMC4yLDAuMzkgMCwwLjE3IDAuMDUsMC4zMSAwLjE2LDAuNDIgMC4xMSwwLjExIDAuMzMsMC4yNCAwLjY3LDAuNCAwLjUsMC4yNCAwLjg2LDAuNDggMS4wOCwwLjczIDAuMjEsMC4yNCAwLjMyLDAuNTUgMC4zMiwwLjkyIHoiLz48cGF0aCBpZD0icGF0aDI2MzY5OSIgaW5rc2NhcGU6Y29ubmVjdG9yLWN1cnZhdHVyZT0iMCIgc3R5bGU9ImZpbGw6I2ZmZmZmZiIgZD0ibSAzNC4wMDM1NTIsNTYuNDQ4Mzg5IGMgMCwwLjYzIC0wLjE1LDEuMTggLTAuNDQsMS42NSAtMC4yOCwwLjQ2IC0wLjY5LDAuNzkgLTEuMjEsMC45OCBsIDEuNTYsMS40NCBoIC0xLjU4IGwgLTEuMTEsLTEuMjUgYyAtMC40OCwtMC4wMSAtMC45MSwtMC4xNCAtMS4zLC0wLjM4IC0wLjM4LC0wLjIzIC0wLjY4LC0wLjU1IC0wLjg5LC0wLjk2IC0wLjIxLC0wLjQxIC0wLjMxLC0wLjg3IC0wLjMxLC0xLjM3IDAsLTAuNTYgMC4xMSwtMS4wNiAwLjM0LC0xLjUgMC4yMywtMC40MyAwLjU0LC0wLjc3IDAuOTYsLTEgMC40MSwtMC4yNCAwLjg4LC0wLjM2IDEuNDEsLTAuMzYgMC40OSwwIDAuOTQsMC4xMiAxLjMzLDAuMzQgMC4zOSwwLjIzIDAuNjksMC41NiAwLjkxLDAuOTggMC4yMiwwLjQyIDAuMzMsMC45IDAuMzMsMS40MyB6IG0gLTEuMjgsMC4wNyBjIDAsLTAuNTUgLTAuMTIsLTAuOTggLTAuMzYsLTEuMyAtMC4yMywtMC4zMSAtMC41NiwtMC40NyAtMC45NywtMC40NyAtMC40MiwwIC0wLjc2LDAuMTYgLTEuMDEsMC40NyAtMC4yNiwwLjMyIC0wLjM4LDAuNzQgLTAuMzgsMS4yNyAwLDAuNTMgMC4xMiwwLjk1IDAuMzcsMS4yNiAwLjI1LDAuMzIgMC41OCwwLjQ3IDAuOTksMC40NyAwLjQxLDAgMC43NSwtMC4xNSAwLjk5LC0wLjQ1IDAuMjUsLTAuMzEgMC4zNywtMC43MiAwLjM3LC0xLjI1IHoiLz48cGF0aCBpZD0icGF0aDI2MzcwNyIgaW5rc2NhcGU6Y29ubmVjdG9yLWN1cnZhdHVyZT0iMCIgc3R5bGU9ImZpbGw6I2ZmZmZmZiIgZD0ibSAzOC4xMDA3MzIsNTkuMTczODU5IGggLTMuMjEgdiAtNS4zOCBoIDEuMjEgdiA0LjQgaCAyIHoiLz4mI3hhOzwvc3ZnPg==;fontColor=#333333;fillColor=#448AB8;" vertex="1" parent="1">
          <mxGeometry x="395.91" y="350" width="30.17" height="44" as="geometry" />
        </mxCell>
        <mxCell id="fkIsUnysvm8yx7V8iFc4-24" value="Cron Job" style="shape=image;verticalLabelPosition=bottom;labelBackgroundColor=#FFFFFF;verticalAlign=top;aspect=fixed;imageAspect=0;image=data:image/svg+xml,PHN2ZyB4bWxuczpjYz0iaHR0cDovL2NyZWF0aXZlY29tbW9ucy5vcmcvbnMjIiB4bWxuczpkYz0iaHR0cDovL3B1cmwub3JnL2RjL2VsZW1lbnRzLzEuMS8iIHhtbG5zOmlua3NjYXBlPSJodHRwOi8vd3d3Lmlua3NjYXBlLm9yZy9uYW1lc3BhY2VzL2lua3NjYXBlIiB4bWxuczpyZGY9Imh0dHA6Ly93d3cudzMub3JnLzE5OTkvMDIvMjItcmRmLXN5bnRheC1ucyMiIHhtbG5zOnNvZGlwb2RpPSJodHRwOi8vc29kaXBvZGkuc291cmNlZm9yZ2UubmV0L0RURC9zb2RpcG9kaS0wLmR0ZCIgeG1sbnM6c3ZnPSJodHRwOi8vd3d3LnczLm9yZy8yMDAwL3N2ZyIgeG1sbnM9Imh0dHA6Ly93d3cudzMub3JnLzIwMDAvc3ZnIiB4bWxuczp4bGluaz0iaHR0cDovL3d3dy53My5vcmcvMTk5OS94bGluayIgdmVyc2lvbj0iMS4xIiBpZD0ic3ZnMTg3OTAzIiBpbmtzY2FwZTp2ZXJzaW9uPSIwLjkyLjMgKDI0MDU1NDYsIDIwMTgtMDMtMTEpIiBzb2RpcG9kaTpkb2NuYW1lPSJwZXJmb3JtYW5jZS5zdmciIHg9IjBweCIgeT0iMHB4IiB2aWV3Qm94PSIwIDAgNDUgNDIuNTQiIHN0eWxlPSJlbmFibGUtYmFja2dyb3VuZDpuZXcgMCAwIDQ1IDQyLjU0OyIgeG1sOnNwYWNlPSJwcmVzZXJ2ZSI+JiN4YTs8c29kaXBvZGk6bmFtZWR2aWV3IGJvcmRlcmNvbG9yPSIjNjY2NjY2IiBib3JkZXJvcGFjaXR5PSIxIiBmaXQtbWFyZ2luLWJvdHRvbT0iMCIgZml0LW1hcmdpbi1sZWZ0PSIwIiBmaXQtbWFyZ2luLXJpZ2h0PSIwIiBmaXQtbWFyZ2luLXRvcD0iMCIgZ3JpZHRvbGVyYW5jZT0iMTAiIGd1aWRldG9sZXJhbmNlPSIxMCIgaWQ9Im5hbWVkdmlldzE4NzkwNSIgaW5rc2NhcGU6Y3VycmVudC1sYXllcj0ic3ZnMTg3OTAzIiBpbmtzY2FwZTpjeD0iMzAiIGlua3NjYXBlOmN5PSIyNy45OTk5OTciIGlua3NjYXBlOnBhZ2VvcGFjaXR5PSIwIiBpbmtzY2FwZTpwYWdlc2hhZG93PSIyIiBpbmtzY2FwZTp3aW5kb3ctaGVpZ2h0PSIxMDE3IiBpbmtzY2FwZTp3aW5kb3ctbWF4aW1pemVkPSIxIiBpbmtzY2FwZTp3aW5kb3ctd2lkdGg9IjE5MjAiIGlua3NjYXBlOndpbmRvdy14PSItOCIgaW5rc2NhcGU6d2luZG93LXk9Ii04IiBpbmtzY2FwZTp6b29tPSIxMy4xMzYzNjQiIG9iamVjdHRvbGVyYW5jZT0iMTAiIHBhZ2Vjb2xvcj0iI2ZmZmZmZiIgc2hvd2dyaWQ9ImZhbHNlIj4mI3hhOwk8L3NvZGlwb2RpOm5hbWVkdmlldz4mI3hhOzxnIGlkPSJzaGFwZTE0MDItMiIgdHJhbnNmb3JtPSJ0cmFuc2xhdGUoMjEsLTM3LjQzMjUpIj4mI3hhOwk8dGl0bGUgaWQ9InRpdGxlMTg3ODMwIj5yZWN0NjY3MjwvdGl0bGU+JiN4YTsJPHJlY3QgaWQ9InJlY3QxODc4MzIiIHk9IjQ1IiBzdHlsZT0iZmlsbDojNEQ0RTRFOyIgd2lkdGg9IjMiIGhlaWdodD0iNC41Ii8+JiN4YTs8L2c+JiN4YTs8ZyBpZD0ic2hhcGUxNDAzLTQiIHRyYW5zZm9ybT0icm90YXRlKC00NSwtMjUuOTI1MjUyLC00LjYwMjk2ODkpIj4mI3hhOwk8dGl0bGUgaWQ9InRpdGxlMTg3ODM1Ij5yZWN0NjY3NDwvdGl0bGU+JiN4YTsJJiN4YTsJCTxyZWN0IGlkPSJyZWN0MTg3ODM3IiB4PSIwIiB5PSI0OC4xMiIgdHJhbnNmb3JtPSJtYXRyaXgoLTEgMi41MzUxODFlLTA2IC0yLjUzNTE4MWUtMDYgLTEgMy4yMjUxIDk3LjYyKSIgc3R5bGU9ImZpbGw6IzRENEU0RTsiIHdpZHRoPSIzLjIyIiBoZWlnaHQ9IjEuMzgiLz4mI3hhOzwvZz4mI3hhOzxnIGlkPSJzaGFwZTE0MDQtNiIgdHJhbnNmb3JtPSJyb3RhdGUoLTEzNSw5LjkzNzM5NjMsMjMuNjM1MjUyKSI+JiN4YTsJPHRpdGxlIGlkPSJ0aXRsZTE4Nzg0MCI+cmVjdDY2NzY8L3RpdGxlPiYjeGE7CSYjeGE7CQk8cmVjdCBpZD0icmVjdDE4Nzg0MiIgeD0iMC40NiIgeT0iNDYuMjciIHRyYW5zZm9ybT0ibWF0cml4KC0yLjUzNTE4MmUtMDYgLTEgMSAtMi41MzUxODJlLTA2IC00Ni4yNzEyIDQ5Ljk2MTQpIiBzdHlsZT0iZmlsbDojMDA1MEM1OyIgd2lkdGg9IjIuNzciIGhlaWdodD0iMy42OSIvPiYjeGE7PC9nPiYjeGE7PGcgaWQ9InNoYXBlMTQwNS04IiB0cmFuc2Zvcm09InRyYW5zbGF0ZSgxMy40ODQ0LC0xNi42OTQ0KSI+JiN4YTsJPHRpdGxlIGlkPSJ0aXRsZTE4Nzg0NSI+cGF0aDY2Nzg8L3RpdGxlPiYjeGE7CTxwYXRoIGlkPSJwYXRoMTg3ODQ3IiBpbmtzY2FwZTpjb25uZWN0b3ItY3VydmF0dXJlPSIwIiBzdHlsZT0iZmlsbDojMkI2RENGOyIgZD0iTTIxLjc3LDQwLjQ4YzAsNy4wNC01LjcxLDEyLjc1LTEyLjc1LDEyLjc1ICAgUy0zLjczLDQ3LjUyLTMuNzMsNDAuNDhTMS45OCwyNy43Myw5LjAyLDI3LjczYzcuMDItMC4wMiwxMi43Myw1LjY1LDEyLjc1LDEyLjY3QzIxLjc3LDQwLjQzLDIxLjc3LDQwLjQ1LDIxLjc3LDQwLjQ4eiIvPiYjeGE7PC9nPiYjeGE7PGcgaWQ9InNoYXBlMTQwNi0xMCIgdHJhbnNmb3JtPSJ0cmFuc2xhdGUoMTcuMjUsLTIwLjQ2KSI+JiN4YTsJPHRpdGxlIGlkPSJ0aXRsZTE4Nzg1MCI+cGF0aDY2ODA8L3RpdGxlPiYjeGE7CTxwYXRoIGlkPSJwYXRoMTg3ODUyIiBpbmtzY2FwZTpjb25uZWN0b3ItY3VydmF0dXJlPSIwIiBzdHlsZT0iZmlsbDojRTZFNkU2OyIgZD0iTTUuMjUsNDkuNUMyLjM1LDQ5LjUsMCw0Ny4xNSwwLDQ0LjI1ICAgYy0wLjAxLTEuMDcsMC4zMS0yLjEyLDAuOTMtM2MxLjY2LTIuMzgsNC45My0yLjk3LDcuMzEtMS4zMXMyLjk3LDQuOTMsMS4zMSw3LjMxYy0wLjM1LDAuNTEtMC43OSwwLjk1LTEuMywxLjMgICBDNy4zNyw0OS4xNyw2LjMyLDQ5LjUsNS4yNSw0OS41eiIvPiYjeGE7PC9nPiYjeGE7PGcgaWQ9InNoYXBlMTQwNy0xMiIgdHJhbnNmb3JtPSJ0cmFuc2xhdGUoMTguNzUsLTQwLjcxKSI+JiN4YTsJPHRpdGxlIGlkPSJ0aXRsZTE4Nzg1NSI+cmVjdDY2ODI8L3RpdGxlPiYjeGE7CTxwYXRoIGlkPSJwYXRoMTg3ODU3IiBpbmtzY2FwZTpjb25uZWN0b3ItY3VydmF0dXJlPSIwIiBzdHlsZT0iZmlsbDojNEQ0RTRFOyIgZD0iTTAsNDguMzhDMCw0OSwwLjUsNDkuNSwxLjEyLDQ5LjVoNS4yNSAgIGMwLjYyLDAsMS4xMy0wLjUsMS4xMy0xLjEyYzAtMC42Mi0wLjUtMS4xMy0xLjEyLTEuMTNjMCwwLTAuMDEsMC0wLjAxLDBIMS4xMkMwLjUsNDcuMjUsMCw0Ny43NiwwLDQ4LjM4eiIvPiYjeGE7PC9nPiYjeGE7PGcgaWQ9InNoYXBlMTQwOC0xNCIgdHJhbnNmb3JtPSJ0cmFuc2xhdGUoMjEuNDI3NSwtMjUuMjk3NSkiPiYjeGE7CTx0aXRsZSBpZD0idGl0bGUxODc4NjAiPnBvbHlnb242Njg0PC90aXRsZT4mI3hhOwk8cGF0aCBpZD0icGF0aDE4Nzg2MiIgaW5rc2NhcGU6Y29ubmVjdG9yLWN1cnZhdHVyZT0iMCIgc3R5bGU9ImZpbGw6IzMzMzMzMzsiIGQ9Ik04LjYzLDQxLjk4bDAuMzQsMC40MmwtOC4xOSw3LjFMMCw0OC40OSAgIEw4LjYzLDQxLjk4eiIvPiYjeGE7PC9nPiYjeGE7PGcgaWQ9InNoYXBlMTQwOS0xNiIgdHJhbnNmb3JtPSJyb3RhdGUoLTkwLC00Ljk4LDI5LjUyKSI+JiN4YTsJPHRpdGxlIGlkPSJ0aXRsZTE4Nzg2NSI+cmVjdDY2ODY8L3RpdGxlPiYjeGE7CSYjeGE7CQk8cmVjdCBpZD0icmVjdDE4Nzg2NyIgeD0iLTEuMTIiIHk9IjQ2Ljg4IiB0cmFuc2Zvcm09Im1hdHJpeCgtMi41MzUxODJlLTA2IC0xIDEgLTIuNTM1MTgyZS0wNiAtNDYuODc1IDQ4LjM3NTEpIiBzdHlsZT0iZmlsbDojRkZGRkZGOyIgd2lkdGg9IjMuNzUiIGhlaWdodD0iMS41Ii8+JiN4YTs8L2c+JiN4YTs8ZyBpZD0ic2hhcGUxNDEwLTE4IiB0cmFuc2Zvcm09InJvdGF0ZSgxODAsMTEuNjI1LDMxLjAyKSI+JiN4YTsJPHRpdGxlIGlkPSJ0aXRsZTE4Nzg3MCI+cmVjdDY2ODg8L3RpdGxlPiYjeGE7CTxyZWN0IGlkPSJyZWN0MTg3ODcyIiB5PSI0NS43NSIgc3R5bGU9ImZpbGw6I0ZGRkZGRjsiIHdpZHRoPSIxLjUiIGhlaWdodD0iMy43NSIvPiYjeGE7PC9nPiYjeGE7PGcgaWQ9InNoYXBlMTQxMS0yMCIgdHJhbnNmb3JtPSJyb3RhdGUoMTgwLDExLjYyNSw0MC4wMikiPiYjeGE7CTx0aXRsZSBpZD0idGl0bGUxODc4NzUiPnJlY3Q2NjkwPC90aXRsZT4mI3hhOwk8cmVjdCBpZD0icmVjdDE4Nzg3NyIgeT0iNDUuNzUiIHN0eWxlPSJmaWxsOiNGRkZGRkY7IiB3aWR0aD0iMS41IiBoZWlnaHQ9IjMuNzUiLz4mI3hhOzwvZz4mI3hhOzxnIGlkPSJzaGFwZTE0MTItMjIiIHRyYW5zZm9ybT0icm90YXRlKC05MCw0LjM5NSwyMC4xNDUpIj4mI3hhOwk8dGl0bGUgaWQ9InRpdGxlMTg3ODgwIj5yZWN0NjY5MjwvdGl0bGU+JiN4YTsJJiN4YTsJCTxyZWN0IGlkPSJyZWN0MTg3ODgyIiB4PSItMS4xMiIgeT0iNDYuODgiIHRyYW5zZm9ybT0ibWF0cml4KC0yLjUzNTE4MmUtMDYgLTEgMSAtMi41MzUxODJlLTA2IC00Ni44NzUgNDguMzc1MSkiIHN0eWxlPSJmaWxsOiNGRkZGRkY7IiB3aWR0aD0iMy43NSIgaGVpZ2h0PSIxLjUiLz4mI3hhOzwvZz4mI3hhOzxnIGlkPSJzaGFwZTE0MTMtMjQiIHRyYW5zZm9ybT0idHJhbnNsYXRlKDAsLTYuOTYpIj4mI3hhOwk8dGl0bGUgaWQ9InRpdGxlMTg3ODg1Ij5wYXRoNjY5NDwvdGl0bGU+JiN4YTsJPHBhdGggaWQ9InBhdGgxODc4ODciIGlua3NjYXBlOmNvbm5lY3Rvci1jdXJ2YXR1cmU9IjAiIHN0eWxlPSJmaWxsOiMyQjZEQ0Y7IiBkPSJNMTAuNSw0OS41Yy0yLjI1LTAuMDctMy44OS0wLjY3LTUuMDMtMS44NCAgIGMtMS4xMy0xLjE2LTEuNzItMi45Ny0xLjcyLTUuNDN2LTcuMmMwLjA5LTEuNDMtMC4yNC0yLjg1LTAuOTUtNC4wOUMyLjE3LDI5Ljk5LDEuMTMsMjkuNCwwLDI5LjMydi0yLjE4ICAgYzIuNS0wLjI3LDMuNzUtMi4xMiwzLjc1LTUuNTN2LTcuMzZjMC0yLjUsMC41Ny00LjMyLDEuNy01LjQ3YzEuMTYtMS4xNCwyLjgtMS43NSw1LjA1LTEuODJ2Mi41N0M5LjM4LDkuNSw4LjMxLDkuOTksNy42MSwxMC44NyAgIGMtMC41NywwLjgxLTAuODYsMi4xMS0wLjg2LDMuOXY3LjA4YzAsMy41LTEuMTksNS42MS0zLjU4LDYuMzN2MC4xYzIuMzksMC43NCwzLjU4LDIuOTEsMy41OCw2LjUxdjYuODEgICBDNi43NCw0Mi40LDYuOCw0My4yMSw2Ljk0LDQ0YzAuMSwwLjU5LDAuMzMsMS4xNSwwLjY2LDEuNjRjMC4zLDAuNDMsMC43LDAuNzcsMS4xOCwwLjk4YzAuNTUsMC4yNCwxLjE1LDAuMzYsMS43NSwwLjM1TDEwLjUsNDkuNXogICAiLz4mI3hhOzwvZz4mI3hhOzxnIGlkPSJzaGFwZTE0MTQtMjYiIHRyYW5zZm9ybT0idHJhbnNsYXRlKDM0LjUsLTYuOTYpIj4mI3hhOwk8dGl0bGUgaWQ9InRpdGxlMTg3ODkwIj5wYXRoNjY5NjwvdGl0bGU+JiN4YTsJPHBhdGggaWQ9InBhdGgxODc4OTIiIGlua3NjYXBlOmNvbm5lY3Rvci1jdXJ2YXR1cmU9IjAiIHN0eWxlPSJmaWxsOiMyQjZEQ0Y7IiBkPSJNMCw0Ni45N2MwLjYsMCwxLjItMC4xMiwxLjc1LTAuMzYgICBjMC40OC0wLjIxLDAuODgtMC41NSwxLjE4LTAuOThjMC4zMy0wLjUsMC41NS0xLjA1LDAuNjUtMS42NGMwLjEzLTAuNzksMC4xOS0xLjU5LDAuMTctMi4zOXYtNi44MWMwLTMuNiwxLjE5LTUuNzcsMy41OC02LjUxICAgdi0wLjA5Yy0yLjM5LTAuNzMtMy41OC0yLjg0LTMuNTgtNi4zNHYtNy4wOGMwLTEuNzktMC4zLTMuMDktMC44OS0zLjkxQzIuMTYsMTAsMS4xMSw5LjUxLDAsOS41M1Y2Ljk2ICAgYzIuMjUsMC4wNywzLjg5LDAuNjgsNS4wMiwxLjg1YzEuMTQsMS4xNywxLjczLDMsMS43Myw1LjQ0djcuMzJjMCwzLjQyLDEuMjUsNS4yNiwzLjc1LDUuNTR2Mi4xN2MtMS4xNCwwLjA3LTIuMTgsMC42Ny0yLjgxLDEuNjIgICBjLTAuNzEsMS4yNS0xLjA0LDIuNjktMC45NCw0LjEzdjcuMmMwLDIuNDYtMC41Nyw0LjI3LTEuNyw1LjQzQzMuODksNDguODMsMi4yNSw0OS40MywwLDQ5LjVWNDYuOTd6Ii8+JiN4YTs8L2c+JiN4YTs8ZyBpZD0ic2hhcGUxNDE1LTI4IiB0cmFuc2Zvcm09InRyYW5zbGF0ZSgtMS41LC0zLjk2KSI+JiN4YTsJPHRpdGxlIGlkPSJ0aXRsZTE4Nzg5NSI+cmVjdDY2OTg8L3RpdGxlPiYjeGE7CTxyZWN0IGlkPSJyZWN0MTg3ODk3IiB5PSIxLjUiIHN0eWxlPSJmaWxsOm5vbmU7IiB3aWR0aD0iNDgiIGhlaWdodD0iNDgiLz4mI3hhOzwvZz4mI3hhOzwvc3ZnPg==;fontColor=#333333;fillColor=#448AB8;fontSize=9;strokeWidth=4;" vertex="1" parent="1">
          <mxGeometry x="520" y="192" width="28.26" height="27" as="geometry" />
        </mxCell>
        <mxCell id="fkIsUnysvm8yx7V8iFc4-29" value="" style="edgeStyle=orthogonalEdgeStyle;rounded=0;orthogonalLoop=1;jettySize=auto;html=1;strokeColor=#808080;startArrow=none;exitX=1;exitY=0.318;exitDx=0;exitDy=0;entryX=-0.038;entryY=0.603;entryDx=0;entryDy=0;exitPerimeter=0;endArrow=none;entryPerimeter=0;" edge="1" parent="1" source="AcxdMaKK0mU5kZiv2lnr-4" target="fkIsUnysvm8yx7V8iFc4-24">
          <mxGeometry relative="1" as="geometry">
            <mxPoint x="610" y="207.625" as="targetPoint" />
            <Array as="points">
              <mxPoint x="520" y="208" />
            </Array>
            <mxPoint x="460" y="208.01800000000003" as="sourcePoint" />
          </mxGeometry>
        </mxCell>
        <mxCell id="fkIsUnysvm8yx7V8iFc4-30" style="edgeStyle=orthogonalEdgeStyle;rounded=0;orthogonalLoop=1;jettySize=auto;html=1;exitX=-0.018;exitY=0.368;exitDx=0;exitDy=0;strokeColor=#808080;fontColor=#333333;startArrow=none;startFill=1;endArrow=classic;endFill=1;exitPerimeter=0;" edge="1" parent="1" source="fkIsUnysvm8yx7V8iFc4-31">
          <mxGeometry relative="1" as="geometry">
            <mxPoint x="460" y="260" as="targetPoint" />
            <Array as="points">
              <mxPoint x="493" y="260" />
            </Array>
          </mxGeometry>
        </mxCell>
        <mxCell id="fkIsUnysvm8yx7V8iFc4-31" value="Data Parser" style="shape=image;verticalLabelPosition=bottom;labelBackgroundColor=#ffffff;verticalAlign=top;aspect=fixed;imageAspect=0;image=data:image/svg+xml,PHN2ZyB4bWxuczpjYz0iaHR0cDovL2NyZWF0aXZlY29tbW9ucy5vcmcvbnMjIiB4bWxuczpkYz0iaHR0cDovL3B1cmwub3JnL2RjL2VsZW1lbnRzLzEuMS8iIHhtbG5zOmlua3NjYXBlPSJodHRwOi8vd3d3Lmlua3NjYXBlLm9yZy9uYW1lc3BhY2VzL2lua3NjYXBlIiB4bWxuczpyZGY9Imh0dHA6Ly93d3cudzMub3JnLzE5OTkvMDIvMjItcmRmLXN5bnRheC1ucyMiIHhtbG5zOnNvZGlwb2RpPSJodHRwOi8vc29kaXBvZGkuc291cmNlZm9yZ2UubmV0L0RURC9zb2RpcG9kaS0wLmR0ZCIgeG1sbnM6c3ZnPSJodHRwOi8vd3d3LnczLm9yZy8yMDAwL3N2ZyIgeG1sbnM9Imh0dHA6Ly93d3cudzMub3JnLzIwMDAvc3ZnIiB4bWxuczp4bGluaz0iaHR0cDovL3d3dy53My5vcmcvMTk5OS94bGluayIgdmVyc2lvbj0iMS4xIiBpZD0ic3ZnMTgyNTU5IiBpbmtzY2FwZTp2ZXJzaW9uPSIwLjkyLjMgKDI0MDU1NDYsIDIwMTgtMDMtMTEpIiBzb2RpcG9kaTpkb2NuYW1lPSJsaWZlX2N5Y2xlLnN2ZyIgeD0iMHB4IiB5PSIwcHgiIHZpZXdCb3g9IjAgMCA1OC41NCA2Mi43NiIgc3R5bGU9ImVuYWJsZS1iYWNrZ3JvdW5kOm5ldyAwIDAgNTguNTQgNjIuNzY7IiB4bWw6c3BhY2U9InByZXNlcnZlIj4mI3hhOzxzb2RpcG9kaTpuYW1lZHZpZXcgYm9yZGVyY29sb3I9IiM2NjY2NjYiIGJvcmRlcm9wYWNpdHk9IjEiIGZpdC1tYXJnaW4tYm90dG9tPSIwIiBmaXQtbWFyZ2luLWxlZnQ9IjAiIGZpdC1tYXJnaW4tcmlnaHQ9IjAiIGZpdC1tYXJnaW4tdG9wPSIwIiBncmlkdG9sZXJhbmNlPSIxMCIgZ3VpZGV0b2xlcmFuY2U9IjEwIiBpZD0ibmFtZWR2aWV3MTgyNTYxIiBpbmtzY2FwZTpjdXJyZW50LWxheWVyPSJzdmcxODI1NTkiIGlua3NjYXBlOmN4PSIzOS4wMjY0NDgiIGlua3NjYXBlOmN5PSI0MS44Mzk3OCIgaW5rc2NhcGU6cGFnZW9wYWNpdHk9IjAiIGlua3NjYXBlOnBhZ2VzaGFkb3c9IjIiIGlua3NjYXBlOndpbmRvdy1oZWlnaHQ9IjEwMTciIGlua3NjYXBlOndpbmRvdy1tYXhpbWl6ZWQ9IjEiIGlua3NjYXBlOndpbmRvdy13aWR0aD0iMTkyMCIgaW5rc2NhcGU6d2luZG93LXg9Ii04IiBpbmtzY2FwZTp3aW5kb3cteT0iLTgiIGlua3NjYXBlOnpvb209IjEwLjMwMTQwMyIgb2JqZWN0dG9sZXJhbmNlPSIxMCIgcGFnZWNvbG9yPSIjZmZmZmZmIiBzaG93Z3JpZD0iZmFsc2UiPiYjeGE7CTwvc29kaXBvZGk6bmFtZWR2aWV3PiYjeGE7PGcgaWQ9ImcxODI1NTciIHRyYW5zZm9ybT0idHJhbnNsYXRlKC0wLjE3NzA4MywtMC4xNzk1MTcpIj4mI3hhOwk8dGl0bGUgaWQ9InRpdGxlMTgyNTM3Ij5QYWdlLTE8L3RpdGxlPiYjeGE7CTxnIGlkPSJncm91cDMwMjQtMSIgdHJhbnNmb3JtPSJ0cmFuc2xhdGUoMC4xNzcwODMsLTAuMTc3MDgzKSI+JiN4YTsJCTx0aXRsZSBpZD0idGl0bGUxODI1MzkiPkxpZmUgQ3ljbGU8L3RpdGxlPiYjeGE7CQk8ZyBpZD0ic2hhcGUzMDI1LTIiIHRyYW5zZm9ybT0ibWF0cml4KDEsMCwwLC0xLDkuNTE0MzUsNjMuNDc2NikiPiYjeGE7CQkJPHRpdGxlIGlkPSJ0aXRsZTE4MjU0MSI+U2hlZXQuMzAyNTwvdGl0bGU+JiN4YTsJCQk8cGF0aCBpZD0icGF0aDE4MjU0MyIgaW5rc2NhcGU6Y29ubmVjdG9yLWN1cnZhdHVyZT0iMCIgc3R5bGU9ImZpbGw6IzNGNTc2NTsiIGQ9Ik00OS4wMyw0OC4zMmwtMS45OS04LjE5bC0xLjk4LTguMTlsLTYuMDgsNS44MSAgICAgbC02LjA4LDUuODJsMy43LDEuMDVjLTMuNTYsNS41NS05Ljc3LDkuMjUtMTYuNzgsOS4yNWMtNC4zNiwwLTguMzItMS4zMi0xMS42My0zLjd2MC4xM2wxLjg1LDguMmwtOC4wNi0yLjUxTDAsNTUuMzMgICAgIGM1LjI5LDQuODksMTIuMTYsNy43OSwxOS44Miw3Ljc5YzExLjIzLDAsMjEuMTQtNi40NywyNS45LTE1Ljg1TDQ5LjAzLDQ4LjMyeiIvPiYjeGE7CQk8L2c+JiN4YTsJCTxnIGlkPSJzaGFwZTMwMjYtNCIgdHJhbnNmb3JtPSJtYXRyaXgoMSwwLDAsLTEsMTUuNDYwOCw4Ni45OTgyKSI+JiN4YTsJCQk8dGl0bGUgaWQ9InRpdGxlMTgyNTQ2Ij5TaGVldC4zMDI2PC90aXRsZT4mI3hhOwkJCTxwYXRoIGlkPSJwYXRoMTgyNTQ4IiBpbmtzY2FwZTpjb25uZWN0b3ItY3VydmF0dXJlPSIwIiBzdHlsZT0iZmlsbDojM0Y1NzY1OyIgZD0iTTQzLjA4LDU3LjQ0YzAtMTYuMTItMTMuMDgtMjkuMi0yOS4yLTI5LjIgICAgIGMtMC40LDAtMC42NywwLTEuMDYsMGwtMS4xOS00LjM2bC01LjAyLDUuMTVsLTAuOCwwLjkyTDAsMzYuMDNsOC4xOSwxLjk5bDAuNCwwLjEzbDcuOCwxLjk4bC0wLjgtMi42NCAgICAgQzI1Ljc3LDM4LjQxLDMzLjgzLDQ3LDMzLjgzLDU3LjQ0YzAsMC4yNiwwLDAuNTMsMCwwLjc5bDYuMDgtNS44MWwxLjk4LDguMTlsMC42NiwyLjUxQzQyLjk1LDYxLjI3LDQzLjA4LDU5LjQyLDQzLjA4LDU3LjQ0eiIvPiYjeGE7CQk8L2c+JiN4YTsJCTxnIGlkPSJzaGFwZTMwMjctNiIgdHJhbnNmb3JtPSJtYXRyaXgoMSwwLDAsLTEsMCw3MC4wODM4KSI+JiN4YTsJCQk8dGl0bGUgaWQ9InRpdGxlMTgyNTUxIj5TaGVldC4zMDI3PC90aXRsZT4mI3hhOwkJCTxwYXRoIGlkPSJwYXRoMTgyNTUzIiBpbmtzY2FwZTpjb25uZWN0b3ItY3VydmF0dXJlPSIwIiBzdHlsZT0iZmlsbDojM0Y1NzY1OyIgZD0iTTIxLjAxLDIxLjg5bC04LjE5LTEuOThsNS44MS02LjA4bDAuNjYtMC42NiAgICAgQzguMDYsMTcuMjcsMCwyOC4xLDAsNDAuNjZjMCw1LjQyLDEuNDUsMTAuNTcsNC4xLDE0LjkzTDEuMzIsNTguMWw1Ljk1LDEuODVsMi4xMSwwLjY2bDguMDYsMi41MWwtMS43MS03Ljc5bC0wLjE0LTAuNCAgICAgbC0xLjg1LTguMTlsLTIuNjQsMi41MWMtMS4xOS0yLjY1LTEuOTgtNS41NS0xLjk4LTguNTljMC04LjMzLDUuMTUtMTUuNDYsMTIuNDItMTguNUwyMS4wMSwyMS44OXoiLz4mI3hhOwkJPC9nPiYjeGE7CTwvZz4mI3hhOzwvZz4mI3hhOzwvc3ZnPg==;fontColor=#333333;fillColor=#448AB8;fontSize=9;" vertex="1" parent="1">
          <mxGeometry x="526.72" y="251.25" width="21.54" height="23" as="geometry" />
        </mxCell>
        <mxCell id="fkIsUnysvm8yx7V8iFc4-32" value="" style="edgeStyle=orthogonalEdgeStyle;rounded=0;orthogonalLoop=1;jettySize=auto;html=1;strokeColor=#808080;fontColor=#333333;startArrow=none;startFill=0;endArrow=none;endFill=0;" edge="1" parent="1">
          <mxGeometry relative="1" as="geometry">
            <mxPoint x="610" y="260" as="sourcePoint" />
            <mxPoint x="550" y="260" as="targetPoint" />
            <Array as="points">
              <mxPoint x="610" y="260" />
            </Array>
          </mxGeometry>
        </mxCell>
      </root>
    </mxGraphModel>
  </diagram>
</mxfile>
